<?xml version="1.0" encoding="utf-8"?>
<!-- Generator: Adobe Illustrator 19.0.0, SVG Export Plug-In . SVG Version: 6.00 Build 0)  -->
<svg version="1.1" id="圖層_2" xmlns="http://www.w3.org/2000/svg" xmlns:xlink="http://www.w3.org/1999/xlink" x="0px" y="0px"
	 viewBox="1447 -1447 3072 3072" style="enable-background:new 1447 -1447 3072 3072;" xml:space="preserve">
<style type="text/css">
	.st0{fill:#FFFFFF;}
</style>
<path id="XMLID_283_" class="st0" d="M1895.6-1325.9h-355.8c-9.8,0-17.8,8-17.8,17.8v246.8c0,9.8,8,17.8,17.8,17.8h355.8
	c9.8,0,17.8-8,17.8-17.8v-246.8C1913.4-1317.9,1905.4-1325.9,1895.6-1325.9z M1645.7-1069.8h-99v-51.4h99V-1069.8z M1645.7-1142.2
	h-99v-51.4h99V-1142.2z M1645.7-1213.6h-99v-52.4h99V-1213.6z M1767.6-1069.8h-100v-51.4h100V-1069.8z M1767.6-1142.2h-100v-51.4
	h100V-1142.2z M1767.6-1213.6h-100v-52.4h100V-1213.6z M1887.6-1069.8h-98.1v-51.4h98.1V-1069.8z M1887.6-1142.2h-98.1v-51.4h98.1
	V-1142.2z M1887.6-1213.6h-98.1v-52.4h98.1V-1213.6z"/>
<g id="XMLID_507_">
	<path id="XMLID_482_" class="st0" d="M2402.8,7.1H2047c-15.1,0-27.4-12.3-27.4-27.4v-311.9c0-15.1,12.3-27.4,27.4-27.4h355.8
		c15.1,0,27.4,12.3,27.4,27.4v311.9C2430.2-5.1,2417.9,7.1,2402.8,7.1z M2047-340.4c-4.6,0-8.3,3.7-8.3,8.3v311.9
		c0,4.6,3.7,8.3,8.3,8.3h355.8c4.6,0,8.3-3.7,8.3-8.3v-311.9c0-4.6-3.7-8.3-8.3-8.3H2047z"/>
</g>
<path id="XMLID_272_" class="st0" d="M2422-1298.9c0-5-4.1-9.1-9.1-9.1h-318.8c-5,0-9.1,4.1-9.1,9.1v226.8c0,5,4.1,9.1,9.1,9.1
	h318.8c5,0,9.1-4.1,9.1-9.1V-1298.9L2422-1298.9z M2184-1090h-76v-145h76V-1090z M2399-1090h-192v-35h192V-1090z M2399-1200h-192
	v-35h192V-1200z M2399-1144h-192v-34h192V-1144z M2400-1258h-292v-26h292V-1258z"/>
<g id="XMLID_270_">
	<path id="XMLID_271_" class="st0" d="M2100-1064h-42.1c-14.9,0-28.9-14.3-28.9-29.2V-1284h71v26h-49v167h49V-1064z"/>
</g>
<g id="XMLID_263_">
	<path id="XMLID_269_" class="st0" d="M2592.4-1045.7h-40.9c-5.9,0-10.8-4.8-10.8-10.8v-69.5c0-5.9,4.8-10.8,10.8-10.8h40.9
		c5.9,0,10.8,4.8,10.8,10.8v69.5C2603.2-1050.5,2598.4-1045.7,2592.4-1045.7z"/>
	<path id="XMLID_266_" class="st0" d="M2708.6-1176v119.6c0,5.9-4.8,10.8-10.8,10.8H2657c-5.9,0-10.8-4.8-10.8-10.8V-1176
		c0-5.9,4.8-10.8,10.8-10.8h40.9C2703.8-1186.8,2708.6-1182,2708.6-1176z"/>
	<path id="XMLID_265_" class="st0" d="M2816.1-1152.6v96.2c0,5.9-4.8,10.8-10.8,10.8h-40.9c-5.9,0-10.8-4.8-10.8-10.8v-96.2
		c0-5.9,4.8-10.8,10.8-10.8h40.9C2811.3-1163.4,2816.1-1158.6,2816.1-1152.6z"/>
	<path id="XMLID_264_" class="st0" d="M2911.8-1045.7h-40.9c-5.9,0-10.8-4.8-10.8-10.8v-154.2c0-5.9,4.8-10.8,10.8-10.8h40.9
		c5.9,0,10.8,4.8,10.8,10.8v154.3C2922.6-1050.5,2917.7-1045.7,2911.8-1045.7z"/>
</g>
<path id="XMLID_262_" class="st0" d="M2890.3-1322.3c-16,0-29,13-29,29c0,2.9,0.4,5.6,1.2,8.2l-60.6,38.8
	c-5.1-4.5-11.8-7.2-19.1-7.2c-10.1,0-19.1,5.2-24.3,13.1l-54.3-16.8c0-0.2,0-0.4,0-0.6c0-16-13-29-29-29s-29,13-29,29
	c0,1.4,0.1,2.8,0.3,4.2l-53.5,24.3c-5.3-6.2-13.2-10.2-22.1-10.2c-16,0-29,13-29,29s13,29,29,29s29-13,29-29c0-1.4-0.1-2.8-0.3-4.2
	l53.5-24.3c5.3,6.2,13.2,10.2,22.1,10.2c10.1,0,19.1-5.2,24.3-13.1l54.3,16.8c0,0.2,0,0.4,0,0.6c0,16,13,29,29,29s29-13,29-29
	c0-2.9-0.4-5.6-1.2-8.2l60.6-38.8c5.1,4.5,11.8,7.2,19.1,7.2c16,0,29-13,29-29S2906.3-1322.3,2890.3-1322.3z"/>
<g id="XMLID_258_">
	<path id="XMLID_260_" class="st0" d="M3385.3-1192h-83.4l-74.7-0.5l78.2-133.5l-5.3-3c-25-14.1-53.4-21.6-82.2-21.6
		c-92.3,0-167.4,75.1-167.4,167.4c0,92.3,75.1,167.4,167.4,167.4c91.5,0,166.1-73.9,167.3-165.1l0,0v-0.9c0-0.4,0-0.9,0-1.3
		c0-0.5,0-1,0-1.5L3385.3-1192L3385.3-1192z"/>
	<path id="XMLID_259_" class="st0" d="M3427-1216.6c-0.9-59.3-33.7-110.4-82.1-137.7l-80.4,137.7H3427z"/>
</g>
<g id="XMLID_244_">
	<g id="XMLID_247_">
		<path id="XMLID_251_" class="st0" d="M4113.2-1206.8c-4.9,0-8.9,3.8-8.9,8.5v80.4c0,4.7,4,8.4,8.9,8.4h27.5c4.9,0,8.9-3.8,8.9-8.4
			v-80.4c0-4.7-4-8.5-8.9-8.5H4113.2L4113.2-1206.8z"/>
		<path id="XMLID_250_" class="st0" d="M4195.4-1206.8c-4.9,0-8.9,3.8-8.9,8.5v80.4c0,4.7,4,8.4,8.9,8.4h27.5c4.9,0,8.9-3.8,8.9-8.4
			v-80.4c0-4.7-4-8.5-8.9-8.5H4195.4L4195.4-1206.8z"/>
		<path id="XMLID_249_" class="st0" d="M4277.5-1206.8c-4.9,0-8.9,3.8-8.9,8.5v80.4c0,4.7,4,8.4,8.9,8.4h27.5c4.9,0,8.9-3.8,8.9-8.4
			v-80.4c0-4.7-4-8.5-8.9-8.5H4277.5L4277.5-1206.8z"/>
		<path id="XMLID_248_" class="st0" d="M4359.6-1206.8c-4.9,0-8.9,3.8-8.9,8.5v80.4c0,4.7,4,8.4,8.9,8.4h27.5c4.9,0,8.9-3.8,8.9-8.4
			v-80.4c0-4.7-4-8.5-8.9-8.5H4359.6L4359.6-1206.8z"/>
	</g>
	<path id="XMLID_246_" class="st0" d="M4097.3-1230.6H4403c6.7,0,12.5-4.5,14.1-11c1.7-6.5-1.3-13.2-7.1-16.5l-152.9-84.3
		c-4.4-2.4-9.7-2.4-14.1,0l-152.8,84.4c-5.8,3.2-8.8,10-7.1,16.5C4084.8-1235.1,4090.6-1230.6,4097.3-1230.6z"/>
	<path id="XMLID_245_" class="st0" d="M4428.6-1050l-22.3-29.8c-2.6-3.5-6.7-5.5-11-5.5H4105c-4.3,0-8.4,2-11,5.5l-23.1,30.9
		c-3.1,4.2-3.6,9.7-1.3,14.4s7.1,7.6,12.3,7.6h336.5h0.1c7.6,0,13.8-6.2,13.8-13.8C4432.2-1044.3,4430.8-1047.6,4428.6-1050z"/>
</g>
<g id="XMLID_235_">
	<g id="XMLID_241_">
		<g id="XMLID_242_">
			<path id="XMLID_243_" class="st0" d="M1868.4-752.7c-12.9,18.2-31.9,28.5-52.4,28.5s-39.5-10.4-52.4-28.5
				c-30.1,11.7-48.8,32.7-48.8,55.1c0,10.2,0.7,19.7,2.2,28.5h198c1.5-8.8,2.2-18.3,2.2-28.5C1917.2-720,1898.5-741,1868.4-752.7z"
				/>
		</g>
	</g>
	<path id="XMLID_240_" class="st0" d="M1863.8-641.2c0,40.9-28.7,75.2-67.1,83.8v-39.1l-58.6,58.5l58.7,58.6v-42.1
		c57.9-9.1,102.4-59.3,102.4-119.7H1863.8z"/>
	<path id="XMLID_239_" class="st0" d="M1606.3-719.5c0-40.8,28.7-75.1,67-83.7v39.1l58.6-58.5l-58.6-58.5v42
		c-57.9,9.1-102.3,59.2-102.3,119.6L1606.3-719.5L1606.3-719.5z"/>
</g>
<circle id="XMLID_234_" class="st0" cx="1816" cy="-798.4" r="52.4"/>
<g id="XMLID_232_">
	<g id="XMLID_274_">
		<g id="XMLID_275_">
			<path id="XMLID_276_" class="st0" d="M2284.4-672.2c-14.2,20-35,31.3-57.6,31.3s-43.4-11.4-57.6-31.3
				c-33.1,12.9-53.6,35.9-53.6,60.6c0,11.2,0.8,21.7,2.4,31.3h217.5c1.6-9.6,2.4-20.1,2.4-31.3
				C2338-636.3,2317.5-659.3,2284.4-672.2z"/>
		</g>
	</g>
	<circle id="XMLID_233_" class="st0" cx="2226.8" cy="-722.5" r="57.5"/>
</g>
<g id="XMLID_225_">
	<g id="XMLID_226_">
		<path id="XMLID_228_" class="st0" d="M1674.1-602.2c-12.9,18.2-31.9,28.5-52.4,28.5s-39.5-10.4-52.4-28.5
			c-30.1,11.7-48.8,32.7-48.8,55.1c0,10.2,0.7,19.7,2.2,28.5h198c1.5-8.8,2.2-18.3,2.2-28.5C1722.9-569.5,1704.3-590.5,1674.1-602.2
			z"/>
	</g>
</g>
<circle id="XMLID_224_" class="st0" cx="1621.7" cy="-648" r="52.4"/>
<g id="XMLID_201_">
	<path id="XMLID_222_" class="st0" d="M2199.8,928.5c3.2,9-2.9,16.3-13.7,16.3h-140.4c-10.8,0-16.8-7.3-13.5-16.3l21.2-57
		c3.4-9,11.6-16.3,18.5-16.3h89.2c6.9,0,15,7.3,18.3,16.3L2199.8,928.5z"/>
	<path id="XMLID_203_" class="st0" d="M2417.1,928.5c3.2,9-2.9,16.3-13.7,16.3H2263c-10.8,0-16.8-7.3-13.5-16.3l21.2-57
		c3.4-9,11.6-16.3,18.5-16.3h89.2c6.9,0,15.1,7.3,18.3,16.3L2417.1,928.5z"/>
	<path id="XMLID_202_" class="st0" d="M2308.4,808.9c3.2,9-2.9,16.3-13.7,16.3h-140.4c-10.8,0-16.8-7.3-13.5-16.3l21.2-57
		c3.4-9,11.6-16.3,18.5-16.3h89.2c6.9,0,15,7.3,18.3,16.3L2308.4,808.9z"/>
</g>
<g id="XMLID_180_">
	<path id="XMLID_195_" class="st0" d="M3551.4-581.3l72.8,68.5c0,0,22.5-18,43.4-33l-77.1-66.4
		C3562-591.2,3551.4-581.3,3551.4-581.3z"/>
	<path id="XMLID_193_" class="st0" d="M3874-635.5c-18.4,16.2-34.1,28.2-56.5,32c-35.6,6.1-71.3-2.6-81.1-9.2
		c-17.1-11.4,0.6-4.3,52-7.2s41.4-30,41.4-30c-11.4-1.4-25-3-78.5-4.3c-19.6-0.5-57.1-4.3-74.9-0.7c-20.3,4.1-39.2,22-67.6,41.3
		l69.8,60.1c10.5-7,19.3-12.1,22.9-12.1c21.4,0,76.5,5.3,115.6,0c78.4-37.9,106-84.2,106-84.2S3901.8-668.3,3874-635.5z"/>
	<path id="XMLID_189_" class="st0" d="M3611.4-841.7v167.6h325.3v-167.6H3611.4z M3922.2-689.3h-296.4v-139.8h296.4V-689.3z"/>
	<path id="XMLID_188_" class="st0" d="M3746.8-767.4c1.9,3.9,4.9,7,8.4,8.9c2.7,1.5,16,7.7,22.3,10.8l3.1,1.5c2.8,1.3,5,3.2,6,5
		c1.7,3.1,0.9,7.4-1.7,9.5c-2,1.7-5.1,2.5-8.9,2.5c-3.4,0-7.4-0.7-11-1.9c-2.1-0.7-5.2-2.5-7.1-4.2c-0.3-0.2-0.6-0.5-0.8-0.8
		l-0.1-0.1l-0.1-0.1c-0.1-0.2-0.2-0.3-0.4-0.5c-1-1.6-2.5-2.4-4.3-2.4c-3.1,0-6,2.4-7.3,4.8c-1.2,2.1-1.2,4.3-0.2,6
		c4.3,6.9,13.6,10.8,22.8,12.2v7.5c0,1.1,0.9,2.1,2.1,2.1h7.1c1.1,0,2.1-0.9,2.1-2.1v-7c7.4-0.5,13.7-2.7,17.6-6.1
		c6.8-6.1,9.4-15.3,6.6-23.6c-3.1-9.1-15.3-14.1-24.2-17.8l-1.4-0.6c-2.9-1.4-7.2-3.2-8.5-3.7c0,0-0.5-0.2-0.6-0.3
		c-3.1-1.4-5.2-2.4-6.7-4.9c-1.8-3-1.4-7.5,1-9.6c3.6-3.2,7.9-3.9,10.9-3.9c2.3,0,4.8,0.4,7.1,1.2c2,0.7,5.1,2.9,7.2,4.7
		c0.3,0.2,0.5,0.5,0.8,0.8c0,0,0.2,0.2,0.2,0.3c0.1,0.2,0.3,0.3,0.4,0.5c1,1.6,2.5,2.4,4.3,2.4c3,0,6-2.4,7.3-4.8
		c1.2-2.1,1.2-4.3,0.2-6.1c-3.2-5.2-10.7-9.5-16.4-11.1c-1.9-0.5-3.8-0.8-5.7-1.1v-7.6c0-1.2-0.9-2.1-2.1-2.1h-7.1
		c-1.1,0-2.1,0.9-2.1,2.1v7.7c-6.4,1.1-12,3.7-16,7.6C3744.8-785.2,3742.9-775.5,3746.8-767.4z"/>
	<path id="XMLID_186_" class="st0" d="M3846.7-757.8c0,23.3-11.9,43.8-29.9,55.8h75.6c0-0.2,0-0.3,0-0.5c0-8.9,7.2-16.2,16.2-16.2
		c0.3,0,0.7,0,1,0.1v-78.7c-0.3,0-0.6,0.1-1,0.1c-8.9,0-16.2-7.3-16.2-16.2c0-1,0.1-2,0.3-3h-80.4
		C3832.8-804.9,3846.7-783,3846.7-757.8z"/>
	<path id="XMLID_182_" class="st0" d="M3655.7-702.5c0,0.2,0,0.3,0,0.5h86.8c-18-12-29.9-32.5-29.9-55.8c0-25.2,13.9-47.1,34.5-58.6
		h-91.6c0.2,1,0.3,2,0.3,3c0,8.9-7.2,16.2-16.2,16.2c-0.3,0-0.7,0-1-0.1v78.7c0.3,0,0.6-0.1,1-0.1
		C3648.4-718.7,3655.7-711.4,3655.7-702.5z"/>
</g>
<g id="XMLID_154_">
	<path id="XMLID_166_" class="st0" d="M1702.1-132.1l25.9-29.3c46.1,28.3,106.8,20.8,143.4-20.6c41-46.4,36.1-117.8-11-159.4
		s-118.5-37.7-159.6,8.7c-36.6,41.4-36.6,102.6-2.9,144.9l-25.9,29.3c-9.5-0.5-19,3.1-25.8,10.8L1542.2-30
		c-11.8,13.3-10.5,33.7,2.8,45.4c13.3,11.8,33.7,10.5,45.4-2.8l104-117.7C1701.3-112.8,1703.8-122.8,1702.1-132.1z M1718.6-317.2
		c32.4-36.6,89-39.6,126.3-6.6c37.3,33,41.3,89.6,8.9,126.2c-32.4,36.6-89,39.6-126.3,6.6S1686.2-280.6,1718.6-317.2z"/>
	<path id="XMLID_160_" class="st0" d="M1821.9-241c-1.3-3-3.1-5.9-5.3-8.5c-2.2-2.5-4.6-5-7.4-7.2c-2.7-2.2-5.5-4.3-8.5-6.3l-1-0.6
		l10.3-27.2c8.1,5.2,10.9,12,8.7,20.9l-0.5,1.9l16.8,6.4l0.7-2.2c1.7-5,2.3-9.9,1.8-14.7c-0.5-4.7-2.1-9.2-4.7-13.3
		c-2.5-4.1-6-7.8-10.3-11.1c-2-1.5-4.1-2.9-6.4-4.1l4.4-11.5l-16.2-6.1l-4.3,11.3c-2.9-0.7-5.8-1.1-8.6-1.3
		c-5.2-0.3-9.9,0.2-14.2,1.5c-4.4,1.3-8.2,3.5-11.4,6.4c-3.3,3-5.7,6.6-7.3,10.9c-1.5,4-2.2,7.8-1.9,11.4c0.2,3.6,1.3,7.2,3.2,10.6
		c1.9,3.4,4.7,6.7,8.3,10c2.8,2.6,6.2,5.3,10.1,8l-12,31.7c-0.1,0-0.1-0.1-0.2-0.1c-2.8-2-5.2-4.3-6.9-6.8c-1.7-2.6-2.9-5.4-3.5-8.4
		s-0.4-6.4,0.6-10l0.5-1.9l-16.8-6.3l-0.7,2.1c-1.8,5.3-2.6,10.5-2.3,15.6c0.3,5.1,1.7,10,4.3,14.6c2.5,4.5,6.3,8.8,11.2,12.6
		c2.2,1.7,4.8,3.4,7.6,5l-4.4,11.6l16.2,6.1l4.2-11.1c3.7,1,7.4,1.6,11,1.8c5.3,0.3,10.4-0.3,14.9-1.8c4.6-1.5,8.7-3.8,12.1-7
		c3.5-3.2,6.1-7.2,7.9-11.8c1.5-4,2.2-7.8,2.1-11.4C1823.9-234.6,1823.2-237.9,1821.9-241z M1784.8-273.1c-0.9-0.7-1.7-1.3-2.5-1.9
		c-2.4-1.9-4.3-3.7-5.6-5.4c-1.1-1.5-1.7-2.9-1.9-4.2c-0.1-1.4,0.2-3,0.8-4.8c1.5-4,4.4-6.4,8.7-7.5c2.7-0.6,5.9-0.6,9.4,0
		L1784.8-273.1z M1800.8-220.2c-1.7,1.4-3.8,2.4-6.2,3c-2.5,0.6-5.3,0.7-8.4,0.4c-1.3-0.2-2.6-0.4-4-0.7l10.9-28.7
		c0.5,0.4,1.1,0.8,1.6,1.1c3.4,2.5,6,4.9,7.8,7.1c1.7,2,2.7,4,3,5.9c0.3,1.9,0,4.1-0.9,6.4C1803.7-223.4,1802.5-221.5,1800.8-220.2z
		"/>
</g>
<g id="XMLID_152_">
	<path id="XMLID_153_" class="st0" d="M3350.5-294.7h-34.8c-10.1,0-18.2,8.2-18.2,18.2v114.8h-45.2l80.8,110.6l80.8-110.6h-45.2
		v-114.8C3368.7-286.5,3360.6-294.7,3350.5-294.7z"/>
</g>
<g id="XMLID_150_">
	<path id="XMLID_151_" class="st0" d="M3124.1-51h34.8c10.1,0,18.2-8.2,18.2-18.2V-184h45.2l-80.8-110.6L3060.7-184h45.2v114.8
		C3105.9-59.2,3114.1-51,3124.1-51z"/>
</g>
<path id="XMLID_147_" class="st0" d="M1718.1,670.8c-93.1,0-168.5,75.5-168.5,168.5s75.5,168.5,168.5,168.5s168.5-75.5,168.5-168.5
	S1811.2,670.8,1718.1,670.8z M1754,829v113.1c0,9.9-8.8,17.9-18.7,17.9h-34.4c-9.9,0-18.9-7.9-18.9-17.9V829h-43.8l79.8-109.2
	l79.8,109.2H1754z"/>
<path id="XMLID_139_" class="st0" d="M3576-172v-145.9c0-4.7,5.2-10.1,9.8-10.1h56.7c4.7,0,8.5,5.4,8.5,10.1V-172H3576z M3739-68.9
	c0,4.7-4.2,7.9-8.9,7.9h-56.7c-4.7,0-9.5-3.2-9.5-7.9V-172h75L3739-68.9L3739-68.9z M3752-172v-74c0-4.7,4.4-9,9.1-9h56.7
	c4.7,0,9.3,4.3,9.3,9v74H3752z M3846.8-17.4c-5.1,0-7.8-2.8-7.8-7.9V-172h75v146.7c0,5.1-4.1,7.9-9.2,7.9"/>
<g id="XMLID_135_">
	<path id="XMLID_136_" class="st0" d="M1652,514h-16v-72h-31V225h31v-71h16v71h30v217h-30V514z M1676,434V233h-63v201H1676z"/>
</g>
<path id="XMLID_132_" class="st0" d="M3318.8,342h-5.5H3046v98h267.3h5.5H3429v-98H3318.8z M3419,428h-96v-74h96V428z"/>
<path id="XMLID_126_" class="st0" d="M2219.6,188.3l-194.1,282c-3.7,5.4,0.1,12.7,6.7,12.7h387.7c6.5,0,10.4-7.3,6.7-12.7
	l-193.5-282C2229.8,183.6,2222.9,183.6,2219.6,188.3z M2241.8,299.9l-4.4,89.6c-0.1,2.9-2.5,5.1-5.4,5.1h-15c-2.9,0-5.3-2.3-5.4-5.1
	l-4.3-89.6c-0.1-3.1,2.3-5.7,5.4-5.7h23.7C2239.4,294.3,2241.9,296.9,2241.8,299.9z M2224.5,446L2224.5,446c-10.3,0-19-7.8-19.8-18
	c-1-13.1,7.4-22.3,19.8-22.3c11.7,0,19.5,8.2,19.7,20.2C2244.2,437.4,2236.5,446,2224.5,446z"/>
<path id="XMLID_121_" class="st0" d="M2731.2,166.2c-93.1,0-168.5,75.5-168.5,168.5s75.5,168.5,168.5,168.5s168.5-75.5,168.5-168.5
	S2824.3,166.2,2731.2,166.2z M2851,357.4c0,5.3-4.3,9.6-9.6,9.6h-219.7c-5.3,0-9.6-4.3-9.6-9.6v-43.7c0-5.3,4.3-9.6,9.6-9.6h219.7
	c5.3,0,9.6,4.3,9.6,9.6V357.4z"/>
<polygon id="XMLID_116_" class="st0" points="3401,222 3401,251 3073,251 3073,222 3046,222 3046,310 3073,310 3073,283 3401,283 
	3401,310 3429,310 3429,222 "/>
<g id="XMLID_109_">
	<path id="XMLID_115_" class="st0" d="M4132.2,455.6c2.4,0,4.4-2.4,4.4-5.3v-30.2c0,0-47.4,35.5-46.8,35.5H4132.2z"/>
	<path id="XMLID_114_" class="st0" d="M4151.8,408.6v41.8c0,2.9,2,5.3,4.4,5.3h42.4c2.4,0,4.4-2.4,4.4-5.3v-80.6l-50.2,38
		L4151.8,408.6z"/>
	<path id="XMLID_113_" class="st0" d="M4234.2,346.1l-16,12.1v92.1c0,2.9,2,5.3,4.4,5.3h42.4c2.4,0,4.4-2.4,4.4-5.3V344.1
		l-13.9-14.2L4234.2,346.1z"/>
	<path id="XMLID_112_" class="st0" d="M4310,368.6c-5.4,4.2-13,3.7-17.7-1.1l-2.2-2.2l-5.5-5.6v90.7c0,2.9,2,5.3,4.4,5.3h42.4
		c2.4,0,4.4-2.4,4.4-5.3v-102l-20.2,15.9L4310,368.6z"/>
	<path id="XMLID_111_" class="st0" d="M4351,336.3v114c0,2.9,2,5.3,4.4,5.3h42.4c2.4,0,4.4-2.4,4.4-5.3V296l-30.7,24.2L4351,336.3z"
		/>
	<path id="XMLID_110_" class="st0" d="M4069.5,442.9c2-0.4,3.9-1.1,5.6-2.5l58.8-43.8l15.6-11.8l1.1-0.8l51.4-38.8l5.9-4.5l9.7-7.3
		L4234,321l21.9-16.5l14.2,14.4l15.6,15.8l5.7,5.7l2.2,2.2c4.9,5,12.7,5.5,18.2,1.2l5.7-4.4l20.7-16.2l15.6-12.2l20.9-16.4
		l44.5-37.8l1.6-1.3v31c0,7.5,6.1,13.6,13.7,13.6c7.5,0,13.6-6.1,13.6-13.7v-59.9c0-3.7-1.4-7.1-4-9.7c-2.6-2.6-6-4-9.7-4l-15.2,0.1
		l-47.5,0.2c-1.7,0-3.4,0.4-4.9,1c-0.3,0.1-0.5,0.1-0.8,0.3c-4.7,2.2-7.9,6.9-7.9,12.4c0,5.8,3.6,10.7,8.7,12.7c1.6,0.6,3.2,1,5,1
		l16-0.1h8.1l-14.6,11.5l-27.5,24.4l-15.6,12.2l-20.7,16.2l-12.9,10.1l-13.1-13.3l-5.7-5.7l-15.6-15.8l-3.1-3.2
		c-4.8-4.9-12.5-5.4-18-1.3l-15,11.3l-16.4,12.3l-9.8,7.4l-5.8,4.3l-51.4,38.8l-1.1,0.8l-15.6,11.8l-67.3,50.2l-8,6.1
		c-6,4.5-7.2,13.1-2.7,19.1C4059.2,442.1,4064.5,443.9,4069.5,442.9z"/>
</g>
<path id="XMLID_108_" class="st0" d="M3412.1,1006.3c-8-4.3-16.2-9.1-24.7-14.4c4.4-32.3-8.1-74.6-37.9-91.7
	c-1.3-0.7-2.9-0.8-4.2-0.2c-1.4,0.6-2.4,1.8-2.7,3.3c-4.5,21,0.5,44.8,13.6,67.6c-10.1-7.3-20.5-15.1-30.9-23.4
	c0.9-32.4-15.7-72.6-46.8-86.6c-1.4-0.6-2.9-0.5-4.3,0.2c-1.3,0.7-2.2,2.1-2.3,3.6c-1.6,14.1,1.1,29.1,7.5,43.7
	c-12.1-10.9-24.1-22.4-36.1-34.4c4.4-32.6-8.9-75.7-39.5-92.4c-1.3-0.7-2.9-0.8-4.3-0.1c-1.4,0.6-2.3,1.9-2.6,3.4
	c-2.7,14.1-1.2,29.4,4.2,44.6c-12.6-14-24.8-28.5-36.7-43.2c7.3-31.5-0.5-73.7-27.8-93.7c-1.2-0.9-2.8-1.1-4.2-0.7
	c-1.4,0.5-2.6,1.6-3,3c-4.2,12.7-4.9,26.9-2.3,41.5c-17.3-24.8-33.1-50.2-46.6-75.6c-1.2-2.2-4-3.1-6.2-2c-2.3,1.1-3.2,3.9-2.2,6.2
	c12,25.6,27,52.2,44.6,79.1c-16.3-8.4-34.6-12.4-51.7-8.5c-1.5,0.3-2.7,1.3-3.3,2.7c-0.6,1.4-0.5,3,0.3,4.2
	c15.1,25.4,47,42.5,86.2,46.4c5.9,7.9,12,15.8,18.3,23.7c-15.2-5.2-31.4-6.7-46.2-2c-1.4,0.5-2.6,1.6-3,3c-0.5,1.4-0.2,3,0.6,4.2
	c16.6,23.5,48.4,37.8,86.2,39.2c6.4,7.1,12.9,14.2,19.6,21.2c1.3,1.4,2.7,2.8,4.1,4.2c-17.8-4.3-36.6-3.9-52.3,4
	c-1.3,0.7-2.3,1.9-2.5,3.4c-0.2,1.5,0.2,3,1.3,4.1c16.7,17.1,42.9,26.3,72.8,26.3c5.8,0,11.8-0.4,17.8-1.1
	c9.7,9.2,19.5,18,29.2,26.4c-20-3.3-40.8-0.9-56.8,10c-1.2,0.8-2,2.2-2.1,3.7s0.6,2.9,1.8,3.9c15,11.8,35.3,17.9,58,17.9
	c11.7,0,24-1.6,36.5-4.9c25.4,19.5,49.9,35.8,72.5,47.9c0.7,0.4,1.5,0.6,2.2,0.6c0.5,0,1.1-0.1,1.6-0.3c1.3-0.5,2.3-1.4,2.8-2.7
	l3.9-9.7C3415.2,1009.9,3414.3,1007.4,3412.1,1006.3z"/>
<g id="XMLID_92_">
	<path id="XMLID_106_" class="st0" d="M3908.8,792.8c-4.8-7.6-18.6-20.9-19.9-24.3c-1.4-3.6-7.2,0.7-10.1,1.4
		c-2.9,0.7-1.4,9.3-1.4,9.3l-6.5,5.8c0,0,0,0,4.3,1.4s17.2-2.2,19.4-0.7c2.2,1.4,2.2,10.1,2.2,10.1s6.5,6.5,10,5.7
		c1.4-0.3,3.3,1.3,5,3.4C3911,800.8,3910,796.8,3908.8,792.8z"/>
	<path id="XMLID_101_" class="st0" d="M3861.6,777.1c-3.7-2.2-3.1-9.4-2.2-13.9c0.3-1.5,0.4-3.7,0.8-3.3c7.2,6.5,12.2,4.3,12.2,3.6
		c0-3.9-5.8-11.5-5.8-11.5s8.6-3.6,12.9-5c1.4-0.5,4.3-0.8,7.5-1c-15.6-23.4-36.8-42.7-61.8-56c-1.6,0.6-3.1,1-3.9,1
		c-2.1,0-7.9,1.4-7.9,1.4s-2.2,3.6-6.5,4.3s-7.2,2.2-7.2,2.2l0.7,5l-0.7,5.7l2.1,9.4l-3.6,1.4c0,0-2.2-2.9-5-7.2
		c-2.9-4.3-9.3,0.7-13.7-2.2c-4.3-2.9-15.1-13.6-15.1-13.6s2.1-3.6,2.9-7.2c0.7-3.6-7.9-9.3-7.9-9.3c0-7.9-19.4-10.1-19.4-10.1
		c0.6-0.2,1.3-0.5,1.9-0.7c-34.4,0.7-66.3,11.6-92.8,29.9c5-0.4,15.5-1.1,10.5,1.7c-6.5,3.6-15.1,7.9-19.4,8.6
		c-4.3,0.7,0,2.9,4.3,2.9s16.5-5.7,24.4-6.5c7.9-0.7,10.8-2.9,10.8-5s-2.1-5-2.1-5s10.8-7.9,11.5-6.5c0.7,1.5-7.9,3.6-2.9,10.8
		s13.6,7.9,5.8,10.8c-7.9,2.9-25.1,12.9-20.1,17.2s5,4.3,5,4.3s8.6-0.7,11.5,1.4c2.9,2.2,7.9,3.6,7.9,3.6s-3.6,5.8,3.6,8.6
		c7.2,2.9,11.5-4.3,9.3-7.2s5.7-1.4,5-6.4s-2.9-9.3-2.9-9.3l2.9-9.3c0,0,7.2-3.6,10.8,0s2.9,7.9,8.6,10.1c5.8,2.1,9.3-2.9,9.3-2.9
		s7.9-0.7,9.3,5c1.5,5.8,2.2,8.6,5.8,10.1c3.6,1.4,0.7,5,0.7,5s7.2-9.3,7.9,0.7c0.7,10.1-5,12.9,1.4,13.6c6.5,0.7,7.2,3.6,7.2,5.8
		c0,2.1-7.2-0.7-7.2-0.7c-8.6-3.6-8.6-3.6-8.6-3.6s5-6.5,0-6.5s-17.2-0.7-17.2-0.7s-14.4,6.5-14.4,10.1c0,0,16.5-5.8,15.8-2.9
		c-0.7,2.9-3.6,2.2-0.7,2.9c2.9,0.7,4.3,6.4,4.3,6.4s-1.5-1.4-7.2,0.7c-5.7,2.2-12.2,6.5-11.5,9.3c0.7,2.9-11.5,2.2-13.6,7.9
		c-2.2,5.7,4.3,7.2-1.5,11.5c-5.7,4.3-16.5,12.2-15.1,17.9c1.4,5.8,2.2,12.2,2.2,12.2h-5c0,0,0-12.2-9.3-11.5s-12.9,3.6-12.9,3.6
		s-15.8-5.8-16.5,7.2c0,0-2.9,23.7,6.5,23.7s10.1-4.3,10.1-4.3s4.3-5.7,7.2-4.3s-2.8,16.5-2.8,16.5c5,0.7,13.6,0,13.6,0
		s0.7,6.5,0.7,10c0,3.6,0,8.6,5,8.6s5,0,5,0v3.6c0,0-7.2-2.9-11.5-5.8c-4.3-2.9-8.6-9.3-8.6-9.3s-9.3-0.7-12.2-3.6
		c-2.9-2.9,0-6.5-6.5-5c-6.5,1.4-16.5-4.3-20.1-6.5s-5.7-10.8-5.7-10.8s-8.6-9.3-12.9-15.8c-4.3-6.5-2.2-9.3-7.2-10.8
		c-5-1.4-7.9-3.6-10.1-12.9c-2.2-9.3,5.8-24.4,2.9-29.4c-2.9-5-1.4-14.4-6.5-15.8c-1.4-0.4-2.7-1-3.8-1.6
		c-15.4,25.6-24.2,55.5-24.2,87.5c0,82.4,58.7,151.2,136.7,166.6c0.9-1.3,2-4,2-9c0-7.9,0-15.1,2.9-26.6s2.2-14.4,2.2-14.4
		s-13.6-5-15.8-9.3s-15.8-20.8-15.8-28.7s5.7-10.1,5.7-10.1s3.6-6.5,3.6-15.1s7.9-10.8,7.9-10.8l6.5,5l5.7-5.8c0,0,9.3,0.7,15.8,2.1
		c6.5,1.4,8.6,4.3,8.6,4.3s8.6,5.8,12.2,7.9c3.6,2.1,14.4,4.3,14.4,4.3s1.4,5,3.6,7.2c1.6,1.6-2.8,4.8-5.1,6.3l4.4-2.7
		c0,0,10,5,13.6,7.9s16.5,0.7,16.5,0.7s7.9,3.6,5.8,8.6c-2.2,5-7.9,12.9-7.9,12.9s-3.6,15.1-9.3,20.1s-5.7,1.4-10.8,3.6
		c-5,2.2-7.9,5-12.9,12.2s-8.6,8.6-14.3,9.3c-5.8,0.7-2.2,5-2.2,5l-10.1,2.1c0,0-3.6,2.9-7.9,8.6c-1.6,2.1-2.2,4.4-2.3,6.4
		c5.4,0.5,10.8,0.8,16.3,0.8c59.8,0,112.4-30.9,142.7-77.6c0.4-3.6,2.3-18.3,4.2-25.8c2.2-8.6,4.3-18.7,2.9-25.2
		c-1.4-6.5-0.7-15.1-0.7-15.1s-7.2-1.4-8.6-5c-1.4-3.6-7.9,5.7-10.1,5.7c-2.1,0-8.6,2.2-11.5,0.7c-2.9-1.4-16.5-24.4-16.5-24.4
		s-0.7-10.8-1.4-18.7s5-12.2,5-12.2s6.5-8.6,8.6-15.8c2.2-7.2,10.8-11.5,10.8-11.5S3866.7,780,3861.6,777.1z M3743.9,778.6l-1.4-5
		c0,0,2.9-5,8.6-6.5c5.8-1.4,6.5-4.3,6.5-4.3l0.7,6.5C3758.2,769.2,3745.3,770.7,3743.9,778.6z M3827.2,709.6
		c-4.1-1.2-5.3-3.3-8.4-6.8c-1.8-1.1-2.4-2.6-2.4-2.6c0.9,0.9,1.7,1.8,2.4,2.6c1,0.6,2.3,1,4.1,1c5,0,12.9,0.7,13.6,3.6
		C3837.2,710.4,3832.2,711.1,3827.2,709.6z"/>
</g>
<g id="XMLID_89_">
	<path id="XMLID_90_" class="st0" d="M1813,1379.6l32.5,56.3c3.3,5.8-1.1,12.9-7.8,12.8h-35.4l-0.1-44.2l-120.5,69.5l120.5,69.2
		V1502h72.7c29.3,0.3,47.8-30.7,33.3-56.1l-51.9-91.1c-3.1-5.4-10-7.3-15.4-4.2l-23.6,13.5C1811.9,1367.2,1809.9,1374.2,1813,1379.6
		z"/>
</g>
<g id="XMLID_87_">
	<path id="XMLID_88_" class="st0" d="M1678.1,1286l32.5-56.3c3.4-5.8,11.7-5.5,15,0.3l17.7,30.7l-38.2,22.2l120.4,69.5l-0.3-139
		l-35.7,20.6l-36.3-62.9c-14.3-25.5-50.5-26.1-65.3-0.8l-52.9,90.5c-3.1,5.4-1.3,12.3,4.1,15.5l23.4,13.7
		C1667.9,1293.1,1675,1291.4,1678.1,1286z"/>
</g>
<g id="XMLID_84_">
	<path id="XMLID_85_" class="st0" d="M1665.2,1451.2h-65c-6.7,0-10.6-7.4-7.2-13.1l17.7-30.7l38.4,22v-139l-120.2,69.8l35.7,20.6
		l-36.3,62.9c-14.9,25.2,2.7,56.8,32,56.9l104.8,0.6c6.2,0,11.3-5,11.4-11.3l0.1-27.1C1676.5,1456.6,1671.4,1451.3,1665.2,1451.2z"
		/>
</g>
<g id="XMLID_79_">
	<rect id="XMLID_83_" x="2174" y="1264" class="st0" width="52" height="33"/>
	<rect id="XMLID_81_" x="2241" y="1264" class="st0" width="52" height="33"/>
	<rect id="XMLID_80_" x="2307" y="1264" class="st0" width="53" height="33"/>
</g>
<g id="XMLID_73_">
	<rect id="XMLID_78_" x="2174" y="1308" class="st0" width="52" height="35"/>
	<rect id="XMLID_77_" x="2241" y="1308" class="st0" width="52" height="35"/>
	<rect id="XMLID_75_" x="2307" y="1308" class="st0" width="53" height="35"/>
</g>
<path id="XMLID_72_" class="st0" d="M2153,1361v-62h-47v-63h-22v63h-19v62h-36v57.3v9.6c0,18.1,14.7,34.1,32.9,34.1h301.8
	c0-35,22.7-83,57.2-101L2153,1361L2153,1361z"/>
<path id="XMLID_64_" class="st0" d="M2663.7,1419.1c5.7-1,10.8-2.7,15.2-5.1l-10.6,38.4c-1.5,0.2-3,0.4-4.5,0.6v15.8l-3.5,12.8h-24
	v-28.2c-21.8-2.2-39.4-8.6-53.1-19.6c-13.7-10.9-22.3-26.4-26.1-46.3l49.3-4.7c2,8.1,5.8,15.2,11.4,21.1
	c5.6,5.9,11.7,10.1,18.5,12.8v-64c-24.7-5.7-42.7-14.3-54.2-25.9c-11.5-11.6-17.3-25.6-17.3-42.1c0-16.7,6.5-30.8,19.5-42.1
	c13-11.4,30.3-17.9,51.9-19.7v-15h27.6v15c20.2,2,36.2,7.5,48.2,16.7c4.7,3.6,8.7,7.6,12,12.2l-7.3,26.4l-30,3.1
	c-3-12-10.6-20.2-22.9-24.5v59.8c15.6,3.4,28.6,7.3,39,11.6l-12.4,44.7c-0.6-0.7-1.3-1.5-2-2.2c-5-4.9-13.2-8.7-24.7-11.4V1419.1
	L2663.7,1419.1z M2811.9,1163.1l-25.2-7.1L2682,1529.3l25.2,7.1l26.4-94.2c19,15.4,44.7,25,76.8,25c30.6,0,58.5-11.1,79.6-29.3
	l-32.1-21.8c-13.3,9.6-29.8,15.3-47.5,15.3c-30.8,0.5-52.1-14.2-64-34.9l3-10.7h96.6V1365h-90.8l5-17.7h85.9v-20.7h-80l13.3-47.5
	c9-4,19.3-6.3,31.1-6.5c22,0,42,8.7,56.5,22.8c1.1,1,2.1,2.1,3.1,3.2l33.4-19c-2.5-3-5.2-5.9-8-8.6c-21.7-21.1-51.7-34.2-84.9-34.2
	c-6.8,0-13.3,0.4-19.6,1.3L2811.9,1163.1L2811.9,1163.1z M2636.2,1256c-7.4,2.1-13.3,5.7-17.6,10.6c-4.3,4.9-6.5,10.3-6.5,16.2
	c0,5.4,1.9,10.4,5.9,15.1c3.9,4.6,10,8.4,18.2,11.2V1256z"/>
<path id="XMLID_61_" class="st0" d="M3412,1483.9c2.2,2.8,0.9,7.5-2.9,10.6l-57.9,46.6c-3.8,3.1-8.7,3.3-11,0.6l-90.2-112
	c-2.2-2.8-1-7.5,2.9-10.6l6.8-5.5l-8.4-10.5c-53.7,27-120.7,13.9-159.9-34.8c-45.1-56-36.3-138,19.8-183.1
	c56-45.1,138-36.3,183.2,19.8c39.2,48.7,37.6,116.9-0.2,163.6l8.4,10.5l8.3-6.7c3.8-3.1,8.8-3.3,11-0.5L3412,1483.9z M3254.9,1362.3
	c42.1-33.9,48.7-95.4,14.8-137.5c-33.9-42.1-95.5-48.7-137.5-14.9c-42.1,33.9-48.7,95.5-14.9,137.5
	C3151.3,1389.5,3212.9,1396.2,3254.9,1362.3z"/>
<path id="XMLID_60_" class="st0" d="M3255.5,1238.1c9.2,0,16.7,7.5,16.7,16.7s-7.5,16.7-16.7,16.7c-2.7,0-5.2-0.7-7.5-1.8
	l-21.9,22.2c0.7,1.8,1.1,3.8,1.1,5.8c0,9.2-7.5,16.7-16.7,16.7s-16.7-7.5-16.7-16.7c0-1.1,0.1-2.3,0.3-3.4l-11.3-12
	c-2.2,1-4.6,1.7-7.1,1.7c-1.1,0-2.1-0.1-3.1-0.3l-20.4,30.2c1.2,2.3,1.9,4.9,1.9,7.7c0,9.2-7.5,16.7-16.7,16.7s-16.7-7.5-16.7-16.7
	s7.5-16.7,16.7-16.7c1.2,0,2.4,0.1,3.5,0.4l20.2-29.9c-1.3-2.4-2.1-5.1-2.1-8c0-9.2,7.5-16.7,16.7-16.7c9.2,0,16.7,7.5,16.7,16.7
	c0,1.4-0.2,2.7-0.5,3.9l11,11.7c2.3-1.2,4.9-1.9,7.6-1.9c1.9,0,3.7,0.4,5.4,1l23.3-23.5c-0.2-1.2-0.4-2.4-0.4-3.6
	C3238.7,1245.6,3246.2,1238.1,3255.5,1238.1z"/>
<g id="XMLID_32_">
	<g id="XMLID_52_">
		<path id="XMLID_59_" class="st0" d="M3663.3-1222.2c2.3,0,4.1-1,4.1-2.9s-1.8-2.9-4.1-2.9h-18h-6.3h-18c-2.3,0-4.1,1-4.1,2.9
			s1.8,3.2,4.1,3.2c-2.3,0-4.1,1.1-4.1,2.9c0,1.9,1.8,3,4.1,3h18.3h5.7h18.3c2.3,0,4.1-1.2,4.1-3.1
			C3667.4-1221,3665.6-1222.2,3663.3-1222.2z"/>
		<path id="XMLID_56_" class="st0" d="M3615.6-1243.9c1.1,0.8,1.8,1.9,2.4,3.2c2.5,5.4,7.7,9,13.6,9h23.9c6.3,0,12-3.9,14-9.9v-0.1
			c1.5-4.5-2.2-14.3,8.8-16.3c10.9-2,6.2-10.6-0.2-12.5c-17.9-5.3-24.7-1.3-28.1-4.8c-3.5-3.5-31.1-22.8-39.7-3.1
			C3607.3-1271.6,3606.8-1250,3615.6-1243.9z"/>
		<path id="XMLID_55_" class="st0" d="M3668.2-1213.8c12.4,4.3,23.9,12.7,33.9,22.7c-27.1,33.2-41.6,77.8-42.2,109.8
			c-4.8-0.1-9.7-0.2-14.6-0.2c-52.7,0-95.4,8.7-95.4-29.3c0-33.6,23.6-89.6,67.7-103.1L3668.2-1213.8L3668.2-1213.8z"/>
		<path id="XMLID_54_" class="st0" d="M3832.5-1237.5c3.1,0,5.6-2.1,5.6-4.7c0-2.6-2.5-4.7-5.6-4.7h-20.3h-17.9H3774
			c-3.1,0-5.6,2.1-5.6,4.7c0,2.6,2.5,4.7,5.6,4.7c-3.1,0-5.6,2.7-5.6,5.3c0,2.6,2.5,5.3,5.6,5.3h20.3h17.9h20.3
			c3.1,0,5.6-2.7,5.6-5.3C3838.1-1234.9,3835.6-1237.5,3832.5-1237.5z"/>
		<path id="XMLID_53_" class="st0" d="M3766.6-1267.4c2.2,1.5,3.3,4.1,4.3,6.9c2.2,5.9,7.7,9.8,14,9.8h40.1c5.4,0,10.4-3,13-7.7
			c1.1-2.1,2.1-4.2,2.7-6c2-6.1,0-17.1,15-19.8c15-2.7,5.6-17.1-3.2-19.7c-24.5-7.3-33.8-1.8-38.6-6.6s-42.7-31.3-54.5-4.3
			C3755.2-1305.3,3754.6-1275.8,3766.6-1267.4z"/>
	</g>
	<g id="XMLID_33_">
		<path id="XMLID_51_" class="st0" d="M3799.6-1097.7L3799.6-1097.7L3799.6-1097.7C3799.6-1097.7,3799.7-1097.7,3799.6-1097.7z"/>
		<path id="XMLID_49_" class="st0" d="M3827.9-1122.7c-2.4-1.3-5.4-2.6-9.3-3.7c-0.6-0.2-0.6-0.3-1.6-0.5v29.4
			c1-0.2,2.4-0.4,3.6-0.7c2.9-0.7,5.3-1.8,7.3-3.2c2-1.3,3.4-3,4.5-4.8c1-1.8,1.6-3.9,1.6-6.2c0-2.4-0.5-4.4-1.4-6
			C3831.6-1120,3830.1-1121.4,3827.9-1122.7z"/>
		<path id="XMLID_45_" class="st0" d="M3786.3-1159.7c0,1.8,0.3,3.4,0.9,4.6c0.6,1.2,1.6,2.2,3.1,3.2c1.7,1.1,4.1,2,6.9,2.9
			c0.9,0.3,1.9,0.6,2.9,0.8v-24.3c-3,0.6-6.2,1.7-8.4,3.2C3788-1167,3786.3-1163.8,3786.3-1159.7z"/>
		<path id="XMLID_35_" class="st0" d="M3838.8-1225h-69.4c-60.5,17-92.9,94.7-92.9,140.8c0,52.1,58.6,39.9,130.8,39.9
			s130.8,12.3,130.8-39.8C3938.1-1128.6,3895.5-1206,3838.8-1225z M3848.4-1099.6c-2,4-4.9,7.5-8.5,10.4c-3.6,2.8-7.7,5.1-12.6,6.7
			c-3.3,1.1-6.3,1.8-10.3,2.1v11.4h-17v-11.9c-3-0.4-5.9-1.1-8.5-1.9c-5.7-1.8-10.4-4.3-14.2-7.6c-3.8-3.3-6.9-7.2-8.8-11.7
			c-2-4.4-3.1-9.8-3.2-15.2l-0.1-2.7h17.2l0.2,2.4c0.3,3.5,1.2,6.9,2.8,9.5c1.6,2.6,3.7,4.8,6.1,6.5c2.4,1.7,5.6,3,8.6,3.9v-32.4
			c-4-1.1-8.4-2.4-11.8-3.7c-4.4-1.8-7.9-3.8-10.8-6.2c-2.9-2.4-5.2-5.3-6.6-8.4c-1.4-3.1-2.2-6.8-2.2-10.9c0-4.4,0.9-8.5,2.8-12.3
			c1.9-3.7,4.6-7,8-9.7c3.4-2.6,7.6-4.7,12.3-6.2c2.6-0.8,5.1-1.4,8.1-1.8v-11.7h17v11.8c3,0.4,4.7,0.9,7,1.5
			c5,1.5,9.3,3.7,12.9,6.5c3.7,2.8,6.6,6.4,8.7,10.4c2.1,4,3.2,9,3.4,14.1l0.1,2.7h-17.2v-2.4c-1-8.7-5.7-14.4-14.7-16.3v27.9
			l0.9,0.2c3.3,0.7,6.5,1.7,9.6,2.7c3.2,1.1,6.2,2.4,9,4c2.9,1.6,5.5,3.5,7.7,5.8s4,5,5.3,8.1c1.3,3.1,2,6.8,2,10.9
			C3851.5-1108.1,3850.5-1103.6,3848.4-1099.6z"/>
	</g>
</g>
<polygon id="XMLID_86_" class="st0" points="1802,225 1802,154 1787,154 1787,225 1757,225 1757,442 1787,442 1787,513 1802,513 
	1802,442 1833,442 1833,225 "/>
<path id="XMLID_117_" class="st0" d="M2903.7-783.1c-31.9-31.9-39.6-64.6-39.6-64.6c-14.2,52.1,12.7,65.2,14.1,91.8
	s-46,31.5-46,31.5s-3.7-31.5-40.4-28.5H2670c-36.7-3-40.4,28.1-40.4,28.1s-47.4-4.9-46-31.5c1.4-26.6,28.3-39.5,14.1-91.6
	c0,0-7.8,32.8-39.6,64.7c-31.9,31.9-28.7,76.1,28.9,118.2c0,0-13,24-6.2,30.5l49.2,99.2c6.3,11.2,18.2,18.2,31.1,18.2l143.6,0.1
	c13,0,25-7.1,31.3-18.5l44.9-98.9c6.8-8.2-6.2-30.4-6.2-30.4C2932.3-706.7,2935.5-751.3,2903.7-783.1z M2707.8-616.9
	c-3.9,8-25.2,5.8-47.5-5S2623-648,2626.9-656c3.9-8,25.2,0.7,47.5,11.5C2696.7-633.7,2711.7-625,2707.8-616.9z M2801.5-621.9
	c-22.3,10.8-43.6,13-47.5,5s11.1-16.8,33.4-27.6c22.3-10.8,43.6-19.5,47.5-11.5C2838.8-648,2823.9-632.7,2801.5-621.9z"/>
<g id="XMLID_230_">
	<path id="XMLID_278_" class="st0" d="M2382.7-680.6c-10.1,14.2-24.9,22.3-40.9,22.3c-1.5,0-3,0.1-4.5,0
		c12.5,12.8,19.5,25.4,19.6,43.4h62.1c1.1-8,1.7-14.5,1.7-22.4C2420.8-654.9,2406.2-671.5,2382.7-680.6z"/>
	<circle id="XMLID_231_" class="st0" cx="2341.9" cy="-716.3" r="40.8"/>
</g>
<g id="XMLID_267_">
	<path id="XMLID_227_" class="st0" d="M2116.6-658.7c-2.3,0.4-4.7,0.5-7.1,0.5c-16,0-30.8-8.1-40.9-22.3c-23.5,9.1-38,25.7-38,43.2
		c0,7.9,0.6,14.4,1.7,22.4h64.3C2096.8-633,2103.9-645.8,2116.6-658.7z"/>
	<circle id="XMLID_268_" class="st0" cx="2109.5" cy="-716.3" r="40.8"/>
</g>
<g id="XMLID_344_">
	<path id="XMLID_345_" class="st0" d="M1791.2-58.1c-7.4,0-13.7-2.7-18.7-8.1S1765-78,1765-85.4c0-4.9,1.1-9.4,3.4-13.6
		c2.3-4.2,5.4-7.6,9.4-10.1s8.5-3.8,13.4-3.8c4.8,0,9.2,1.2,13.2,3.7s7.1,5.8,9.4,10.1c2.3,4.2,3.4,8.8,3.4,13.7
		c0,4.8-1.1,9.3-3.4,13.5c-2.3,4.2-5.4,7.6-9.4,10.1S1796-58.1,1791.2-58.1z M1791.2-75.4c2.7,0,4.8-1,6.4-2.9s2.4-4.3,2.4-7.1
		c0-2.9-0.8-5.3-2.4-7.2c-1.6-2-3.7-2.9-6.4-2.9c-2.8,0-4.9,1-6.5,2.9c-1.6,2-2.4,4.4-2.4,7.2c0,2.8,0.8,5.2,2.4,7.1
		C1786.3-76.3,1788.5-75.4,1791.2-75.4z M1785.1-2.7l56.1-105.7c1.2-2.2,2.2-3.6,3.3-4.3c1-0.7,2.5-1.1,4.5-1.1
		c1.7,0,3.3,0.4,4.8,1.2c1.5,0.8,2.8,2,3.8,3.4c1,1.5,1.4,3.1,1.4,4.8c0,1.7-0.4,3.3-1.3,5L1800.8,7.2c-1.6,2.3-2.8,3.8-3.6,4.5
		c-0.8,0.7-2.2,1.1-4.1,1.1c-2.2,0-4.4-1-6.5-2.9s-3.1-4.1-3.1-6.5C1783.5,1.8,1784-0.3,1785.1-2.7z M1850.9,11.9
		c-7.4,0-13.7-2.7-18.7-8.1s-7.5-11.8-7.5-19.2c0-4.9,1.1-9.4,3.4-13.6s5.4-7.6,9.4-10.1s8.5-3.8,13.4-3.8c4.8,0,9.2,1.2,13.2,3.7
		s7.1,5.8,9.4,10.1c2.3,4.2,3.4,8.8,3.4,13.7c0,4.8-1.1,9.3-3.4,13.5c-2.3,4.2-5.4,7.6-9.4,10.1S1855.7,11.9,1850.9,11.9z
		 M1850.9-5.4c2.7,0,4.8-1,6.4-2.9c1.6-1.9,2.4-4.3,2.4-7.1c0-2.9-0.8-5.3-2.4-7.2c-1.6-2-3.7-2.9-6.4-2.9c-2.8,0-4.9,1-6.5,2.9
		c-1.6,2-2.4,4.4-2.4,7.2c0,2.8,0.8,5.2,2.4,7.1C1846-6.3,1848.1-5.4,1850.9-5.4z"/>
</g>
<g id="XMLID_465_">
	<path id="XMLID_672_" class="st0" d="M2148.1-236.8l50.1,32.8l95-82.9c5.2-4.5,13.2-2.4,15.6,4l46.2,125.3h-260.2l39.3-75.6
		C2136.8-238.3,2143.3-240,2148.1-236.8z"/>
</g>
<g id="XMLID_30_">
	<rect id="XMLID_670_" x="2116.6" y="-125.2" class="st0" width="216.6" height="21.9"/>
</g>
<g id="XMLID_123_">
	<rect id="XMLID_668_" x="2116.6" y="-81.4" class="st0" width="216.6" height="21.9"/>
</g>
<g id="XMLID_23_">
	<path id="XMLID_324_" class="st0" d="M2699.1-166.9l-73-101.5c-1.7-2-4.2-3.1-6.8-3.1s-5.1,1.1-6.8,3.1l-72.8,101.5
		c-1.5,1.7-2.3,3.9-2.2,6.2c1.1,44.7,38,81.1,82.1,81.1s80.8-36.4,81.9-81.1C2701.4-163,2700.6-165.2,2699.1-166.9z M2619.3-249.3
		l56.9,81.3h-113.7L2619.3-249.3z"/>
	<path id="XMLID_364_" class="st0" d="M2920.4-166.9l-73-101.5c-1.7-2-4.2-3.1-6.8-3.1s-5.1,1.1-6.8,3.1L2761-166.9
		c-1.5,1.7-2.3,3.9-2.2,6.2c1.1,44.7,38,81.1,82.1,81.1s80.8-36.4,81.9-81.1C2922.7-163,2921.9-165.2,2920.4-166.9z M2840.5-249.3
		l56.9,81.3h-113.7L2840.5-249.3z"/>
</g>
<g id="XMLID_22_">
	<path id="XMLID_414_" class="st0" d="M2760.4-306.6c-2.1-16.9-17.5-28.9-34.4-26.8s-28.9,17.6-26.8,34.4c1.9,15.6,15.3,27,30.6,27
		c1.3,0,2.6-0.1,3.8-0.2C2750.4-274.3,2762.5-289.8,2760.4-306.6z M2737-297.2c-1.5,1.9-3.7,3.2-6.1,3.5l0,0
		c-2.4,0.3-4.8-0.4-6.8-1.9c-1.9-1.5-3.2-3.7-3.5-6.1c-0.3-2.4,0.4-4.8,1.9-6.8c1.5-1.9,3.7-3.2,6.1-3.5c0.4,0,0.8-0.1,1.1-0.1
		c4.5,0,8.5,3.4,9.1,8C2739.1-301.5,2738.5-299.1,2737-297.2z"/>
	<path id="XMLID_369_" class="st0" d="M2882.2-27H2740v-269h101.9c5,0,9.1-4.5,9.1-9.5s-4.1-9.5-9.1-9.5h-224c-5,0-9.1,4.5-9.1,9.5
		s4.1,9.5,9.1,9.5h102v269h-142.2c-5,0-9.1,3.5-9.1,8.5s4.1,8.5,9.1,8.5h304.4c5,0,9.1-3.5,9.1-8.5S2887.2-27,2882.2-27z"/>
</g>
<path id="XMLID_185_" class="st0" d="M4450.7-142.5c-15.2-4.4-31-14-40.5-24.7l0.5-1.1c10.8,1,20.1-0.1,26.2-1.7
	c8.4-2.2,5.4-6.4,1.4-6.9c-8.5-1.1-17.5-3.8-25.5-7.6c-1.3-4.5-4.2-9.3-9.6-13.5c-0.2-0.2-2.8-29.9-19-43.3
	c-9.1-7.5-24.5-19-40.4-29.2c-8.6-5.5-20.6-9.1-37.5-9.1c-30,0-160.1,17.1-195.3,34.3c0,0-21.9,4.8-42.8,39
	c-5.8,9.5-17.2,42.9-18.7,47.7c-1.3,4.2,1,8.6,5.2,10c0.8,0.2,1.6,0.4,2.4,0.4c3.4,0,6.5-2.2,7.6-5.5c5.6-17.6,5.7-19.7,9.3-25.8
	c5.4-9.4,11.3-14.2,19.4-17.1c-14.4,26.2-16,41.8-25.4,72.9c-14.2,47.3-14.2,49.8-14.2,49.8h20c5.3,0,10.2-2.6,13.2-7
	c6.2-9.3,17.3-24.6,21.9-28.5c27-22.5,67.1-20.8,90.6-16.9c0,0,37.6,7.1,53.1,52.8c1.3,3.8,4.8,6.4,8.8,6.4h11.7
	c0,0,14.9-71.5,18.1-82c3.2-10.5,0.9-10.3,15.3-5.5c-0.5,21.7,25.9,33.6,28.3,49.9c1.1,7.6,5.8,12.1,13.4,14.1
	c5,1.4,27.9,0.1,28.9-0.7c1-0.8,2.5-6,4.1-12c4.3-16.6,6.3-23.9,10.5-28.1c2.9-2.8,4.6-5.6,5.5-8l2.5-5.2c19,9.2,37.7,10.7,48.4,9.7
	C4457.7-136,4455.2-141.1,4450.7-142.5z M4374.5-143.9c-5.5,3.6-13.5-1.9-17.8-12.4c-4.3-10.5-3.4-21.9,2.1-25.5s13.5,1.9,17.8,12.4
	C4381-159,4380-147.6,4374.5-143.9z"/>
<path id="XMLID_11_" class="st0" d="M4056,725v109.4V963h39v-45h29v45h40v-45h30v45h41v-45h28v45h40v-45h32v45h38v-45h30v45h41V725
	H4056z M4209,868h-68V763h68V868z M4362,868h-71V763h71V868z"/>
<path id="XMLID_46_" class="st0" d="M3431.8-791.5c0-13.5-11.2-24.4-24.9-24.4c-13.7,0-24.9,11-24.9,24.4c0,5.4,1.8,10.3,4.8,14.4
	L3305-596.7l-61.1-105.6c5.1-4.5,8.3-10.9,8.3-18.1c0-13.5-11.2-24.5-24.9-24.5s-24.9,11-24.9,24.5c0,2.5,0.4,4.8,1.1,7l-63.9,89.1
	c-1.3-0.2-2.6-0.3-4-0.3c-7.2,0-13.7,3-18.3,7.9l-24.6-9c-0.7-13.2-11.7-23.7-25-23.7c-13.9,0-25.1,11.2-25.1,25.1
	c0,13.9,11.2,25.1,25.1,25.1c6.7,0,12.8-2.7,17.3-7l25.9,9.6c1.8,11.8,12.2,20.8,24.6,20.8c13.7,0,24.9-11,24.9-24.4
	c0-5-1.5-9.6-4.1-13.5l60.6-84.6c2.2,1,4.6,1.7,7.1,2l63.8,110.1c-6.5,4.4-10.8,11.8-10.8,20.1c0,13.5,11.2,24.4,24.9,24.4
	c13.7,0,24.9-11,24.9-24.4c0-5.2-1.7-10-4.5-14l84.8-187C3420.7-767.1,3431.8-778.1,3431.8-791.5z"/>
<g id="XMLID_252_">
	<path id="XMLID_255_" class="st0" d="M4125.8-599.7l154,16.9l80.9-109.3l86.5,128.1L4378-808.3c-1.7-5.9-9.3-7.6-13.3-3
		l-158.9,180.4l-85.9-73.4c-4-3.5-10.3-1.9-12.3,3l-60.5,151.4L4125.8-599.7z"/>
	<polygon id="XMLID_256_" class="st0" points="4130.4,-580.2 4058.8,-535 4444.1,-535 4360.1,-659.3 4288.6,-562.9 	"/>
	<path id="XMLID_257_" class="st0" d="M4455.6-534.7L4455.6-534.7L4455.6-534.7z"/>
</g>
<path id="XMLID_10_" class="st0" d="M2739.9,842.7l84.9-156.5c2.7-4.9-3.8-9.6-7.6-5.5l-185.6,195.8c-4.6,4.8-1.2,12.8,5.5,12.8
	h75.1l-57.1,115.4c-2.3,4.7,3.6,9.2,7.5,5.6l165.9-153.1c5.6-5.2,2-14.6-5.7-14.6h-82.9V842.7z"/>
<g id="XMLID_587_">
	<g id="XMLID_158_">
		<circle id="XMLID_458_" class="st0" cx="3861.2" cy="281.6" r="40.8"/>
		<circle id="XMLID_454_" class="st0" cx="3628.9" cy="281.6" r="40.8"/>
		<g id="XMLID_547_">
			<path id="XMLID_1_" class="st0" d="M3919.1,468h-347.2c-12.7,0-19.1-15.4-10.1-24.4l131.8-131.8h103.9l1.4,1.4l130.4,130.4
				C3938.2,452.6,3931.8,468,3919.1,468z"/>
		</g>
		<path id="XMLID_573_" class="st0" d="M3589.8,383l43.6-43.5c-1.5,0.1-3,0.2-4.5,0.2c-16,0-30.8-8.1-40.9-22.3
			c-23.5,9.1-38,25.7-38,43.2c0,7.9,0.6,15.4,1.7,22.4L3589.8,383L3589.8,383z"/>
		<path id="XMLID_549_" class="st0" d="M3902.1,383h36.3c1.1-7,1.7-14.5,1.7-22.4c0-17.5-14.5-34.2-38-43.3
			c-10.1,14.2-24.9,22.3-40.9,22.3c-0.9,0-1.8,0-2.7,0L3902.1,383z"/>
	</g>
	<g id="XMLID_159_">
		<circle id="XMLID_76_" class="st0" cx="3745.4" cy="231" r="32.3"/>
		<path id="XMLID_130_" class="st0" d="M3806.8,287c-3.2-11-13.7-21.4-29.1-27.3c-8,11.2-19.7,17.4-32.3,17.4s-24.4-6.1-32.3-17.3
			c-15.4,6-25.9,16.2-29.1,27.2L3806.8,287L3806.8,287z"/>
	</g>
</g>
<g id="XMLID_2_">
	<rect id="XMLID_12_" x="3710" y="1390.1" class="st0" width="79" height="62.2"/>
	<rect id="XMLID_9_" x="3710" y="1294.9" class="st0" width="79.1" height="62.2"/>
	<rect id="XMLID_82_" x="3603" y="1294.9" class="st0" width="79" height="62.2"/>
	<rect id="XMLID_8_" x="3603.1" y="1390.1" class="st0" width="78.9" height="62.2"/>
	<path id="XMLID_103_" class="st0" d="M3933.8,1181.8H3895v-20c0-5.4-4.4-9.7-9.7-9.7h-60.6c-5.4,0-9.7,4.4-9.7,9.7v20h-130.6v-20
		c0-5.4-4.3-9.7-9.7-9.7h-60.5c-5.4,0-9.7,4.4-9.7,9.7v20h-38.7c-11.2,0-20.2,9.1-20.2,20.2v288c0,11.1,9.1,20.2,20.2,20.2h368
		c11.1,0,20.2-9.1,20.2-20.2v-288C3954,1190.8,3944.9,1181.8,3933.8,1181.8z M3834.4,1171.5h41.1v69.2h-41.1V1171.5z M3624,1171.5
		h41v69.2h-41V1171.5z M3928,1490c6.5,0.4,6.2,0.8,5.8-5.9h-368c-0.4,6.6-0.8,6.3,6.2,5.9v-263.5c-7-0.4-6.7-0.8-6.2-0.8h38.7v24.7
		c0,5.4,4.4,9.7,9.7,9.7h60.5c5.4,0,9.7-4.4,9.7-9.7v-24.7H3815v24.7c0,5.4,4.4,9.7,9.7,9.7h60.6c5.4,0,9.7-4.4,9.7-9.7v-24.7h38.8
		c0.4,0,0.8,0.3-5.8,0.8V1490z"/>
	<rect id="XMLID_3_" x="3817" y="1390.1" class="st0" width="79" height="62.2"/>
</g>
</svg>
