<?xml version="1.0" encoding="utf-8"?>
<!-- Generator: Adobe Illustrator 19.0.0, SVG Export Plug-In . SVG Version: 6.00 Build 0)  -->
<svg version="1.1" id="圖層_1" xmlns="http://www.w3.org/2000/svg" xmlns:xlink="http://www.w3.org/1999/xlink" x="0px" y="0px"
	 viewBox="0 0 66 66" style="enable-background:new 0 0 66 66;" xml:space="preserve">
<style type="text/css">
	.st0{fill:#E0B825;}
	.st1{fill:#0D3F69;}
	.st2{fill:#AF3081;}
	.st3{fill:#E3871F;}
	.st4{fill:#50A837;}
	.st5{fill:#1C7AB3;}
	.st6{fill:#FFFFFF;}
</style>
<g id="XMLID_4_">
	<g id="XMLID_3_">
		<path id="XMLID_10_" class="st0" d="M22.7,22.3c-0.2-0.5-0.3-1.2-0.3-1.7c0-1.4,0.4-2.4,1.2-3.2c0.7-0.8,2-1.3,3.7-1.3l3.9-6.8
			h-3.5c-2.2,0-4,0.3-5.5,0.8c-1.5,0.5-2.8,1.4-3.8,2.3c-0.9,1-1.7,2.2-2.2,3.5c-0.5,1.4-0.6,2.8-0.6,4.5c0,1.4,0.2,2.7,0.5,4
			c0.4,1.4,1,2.5,2,3.6c0.5,0.5,0.9,0.9,1.5,1.3l3.5-6C23,23,22.9,22.7,22.7,22.3z"/>
		<path id="XMLID_11_" class="st1" d="M19.8,41.2c-1.9,0-3.4,1.5-3.4,3.4c0,1.9,1.5,3.4,3.4,3.4H30l-3.9-6.8L19.8,41.2L19.8,41.2z"
			/>
		<path id="XMLID_14_" class="st2" d="M43.3,34.7c0.2,0.5,0.3,1.2,0.3,1.8c0,1.3-0.4,2.6-1.3,3.5c-0.6,0.7-1.6,1.1-2.8,1.3l-4,6.8
			H38c2.3,0,4-0.3,5.7-0.9c1.6-0.5,2.8-1.3,3.9-2.4c1-1,1.7-2.2,2.2-3.6c0.4-1.4,0.7-2.9,0.7-4.5c0-1.4-0.2-2.8-0.5-4.1
			c-0.4-1.4-1-2.6-2-3.7c-0.3-0.3-0.5-0.5-0.8-0.7L43.3,34.7C43.3,34.6,43.3,34.6,43.3,34.7z"/>
		<path id="XMLID_15_" class="st3" d="M44,16c1.9,0,3.4-1.5,3.4-3.4S45.9,9.2,44,9.2h-7.3l3.9,6.8L44,16L44,16z"/>
		<path id="XMLID_20_" class="st3" d="M27.3,16c0.1,0,0.1,0,0.2,0h13.1l-3.9-6.8h-5.4L27.3,16z"/>
		<path id="XMLID_21_" class="st4" d="M37.3,25.2h-9.1c-1.2,0-2.1-0.1-2.9-0.4s-1.4-0.5-1.8-1c-0.2-0.2-0.3-0.4-0.4-0.5l-3.4,6
			c0.7,0.5,1.4,0.9,2.4,1.4c1.6,0.6,3.8,0.9,6.4,0.9h9c1.2,0,2.2,0.1,3,0.4c0.7,0.3,1.4,0.6,1.9,1.1c0.5,0.5,0.7,0.9,0.9,1.5
			l3.7-6.4c-0.9-0.7-1.9-1.4-3.2-2C42.1,25.6,39.9,25.2,37.3,25.2z"/>
		<path id="XMLID_22_" class="st5" d="M38.2,41.2H26.2L30,48h5.4l4-6.8C39.1,41.2,38.7,41.2,38.2,41.2z"/>
	</g>
</g>
<g id="XMLID_5548_">
	<path id="XMLID_5564_" class="st6" d="M15.3,53.1L15.3,53.1c0,0.3-0.3,0.6-0.6,0.6h-3.2c-0.4,0-0.6,0.1-0.8,0.3
		c-0.1,0.1-0.2,0.4-0.2,0.6c0,0.1,0,0.2,0.1,0.3c0,0.1,0.1,0.2,0.2,0.3c0.1,0.1,0.2,0.1,0.4,0.2c0.1,0.1,0.4,0.1,0.6,0.1h1.8
		c0.5,0,0.9,0.1,1.3,0.2c0.4,0.1,0.6,0.3,0.8,0.5s0.4,0.4,0.4,0.7c0.1,0.3,0.1,0.6,0.1,0.8c0,0.3-0.1,0.6-0.1,0.9
		c-0.1,0.3-0.2,0.5-0.4,0.7s-0.4,0.3-0.8,0.5C14.4,60,14,60,13.6,60H10c-0.4,0-0.6-0.3-0.6-0.6l0,0c0-0.3,0.3-0.6,0.6-0.6h3.6
		c0.4,0,0.6-0.1,0.8-0.3c0.1-0.2,0.3-0.4,0.3-0.7c0-0.1,0-0.2-0.1-0.3c-0.1-0.1-0.1-0.2-0.2-0.3c-0.1-0.1-0.2-0.1-0.3-0.2
		c-0.1-0.1-0.4-0.1-0.6-0.1h-1.8c-0.5,0-0.9-0.1-1.3-0.2s-0.6-0.3-0.8-0.5c-0.2-0.2-0.3-0.4-0.4-0.7c-0.1-0.3-0.1-0.5-0.1-0.8
		s0.1-0.6,0.1-0.8c0.1-0.3,0.2-0.5,0.4-0.7c0.2-0.2,0.4-0.4,0.7-0.4c0.3-0.1,0.6-0.1,1-0.1h3.2C15,52.5,15.3,52.8,15.3,53.1z"/>
	<path id="XMLID_5561_" class="st6" d="M20.4,54.1c0.8,0,1.4,0.2,1.9,0.7C22.7,55.3,23,56,23,57s-0.2,1.8-0.7,2.2S21.1,60,20.4,60
		h-1.3c-0.8,0-1.4-0.2-1.9-0.7S16.5,58,16.5,57s0.2-1.8,0.7-2.2s1-0.7,1.9-0.7C19.1,54.1,20.4,54.1,20.4,54.1z M19.2,55.2
		c-0.5,0-0.9,0.1-1.1,0.4c-0.2,0.3-0.3,0.8-0.3,1.4s0.1,1.1,0.3,1.4s0.6,0.4,1.1,0.4h1c0.5,0,0.9-0.1,1.1-0.4
		c0.2-0.3,0.3-0.8,0.3-1.4s-0.1-1.1-0.3-1.4c-0.3-0.3-0.6-0.4-1.1-0.4H19.2z"/>
	<path id="XMLID_5559_" class="st6" d="M24.5,54.1c0.3,0,0.6,0.3,0.6,0.6v2.9c0,0.3,0.1,0.6,0.3,0.8c0.3,0.2,0.6,0.4,1,0.4h1
		c0.5,0,0.8-0.1,1-0.4c0.3-0.2,0.3-0.5,0.3-0.8v-2.4c0-0.6,0.5-1.1,1.1-1.1l0,0v3.6c0,0.3-0.1,0.6-0.1,0.9c-0.1,0.3-0.3,0.6-0.5,0.7
		s-0.5,0.4-0.8,0.5c-0.4,0.1-0.7,0.1-1.1,0.1h-1.1c-0.4,0-0.8-0.1-1.1-0.1c-0.4-0.1-0.6-0.3-0.8-0.5s-0.3-0.4-0.5-0.7
		c-0.1-0.2-0.1-0.6-0.1-0.9v-3C23.9,54.4,24.1,54.1,24.5,54.1L24.5,54.1z"/>
	<path id="XMLID_5557_" class="st6" d="M34.6,54.1c1,0,1.8,0.2,2.2,0.7c0.5,0.4,0.7,1.1,0.7,1.9v2.7c0,0.4-0.3,0.6-0.6,0.6l0,0
		c-0.3,0-0.6-0.3-0.6-0.6v-2.7c0-0.5-0.1-0.8-0.4-1.1c-0.3-0.3-0.7-0.3-1.3-0.3h-2c-0.1,0-0.1,0.1-0.1,0.1V59c0,0.6-0.5,1.1-1,1.1
		h-0.1v-5c0-0.3,0.1-0.6,0.2-0.7c0.1-0.1,0.4-0.2,0.6-0.2L34.6,54.1L34.6,54.1z"/>
	<path id="XMLID_5554_" class="st6" d="M44.4,52.6c0.3,0,0.6-0.7,0.6-0.4v5.3c0,0.8-0.2,1.5-0.6,1.9C44,59.8,43.5,60,42.8,60h-1.6
		c-0.8,0-1.4-0.2-1.9-0.7s-0.7-1.3-0.7-2.2s0.2-1.8,0.7-2.2s1-0.7,1.9-0.7h2c0.3,0,0.6-0.3,0.6-0.6v-1.3
		C43.7,51.8,44,52.6,44.4,52.6L44.4,52.6z M42.4,58.8c0.5,0,0.8-0.1,1.1-0.4c0.2-0.2,0.3-0.6,0.3-1.1v-2.2h-2.5
		c-0.5,0-0.9,0.1-1.1,0.4s-0.4,0.8-0.4,1.4s0.1,1.1,0.4,1.4c0.2,0.3,0.6,0.4,1.1,0.4L42.4,58.8L42.4,58.8z"/>
	<path id="XMLID_5551_" class="st6" d="M50,54.1c0.7,0,1.2,0.1,1.5,0.5s0.5,0.8,0.5,1.3c0,0.6-0.1,1-0.5,1.3
		c-0.3,0.3-0.8,0.4-1.5,0.4h-2.8V58c0,0.2,0.1,0.4,0.2,0.6s0.3,0.2,0.7,0.2h3.6l0,0c0,0.6-0.5,1.1-1.1,1.1h-2.5
		c-0.3,0-0.7-0.1-1-0.1c-0.3-0.1-0.5-0.2-0.6-0.4c-0.1-0.2-0.3-0.3-0.3-0.6c-0.1-0.2-0.1-0.5-0.1-0.8v-2c0-0.3,0.1-0.6,0.1-0.8
		c0.1-0.2,0.2-0.4,0.3-0.6c0.1-0.1,0.4-0.3,0.6-0.4c0.3-0.1,0.6-0.1,1-0.1L50,54.1L50,54.1z M47.2,56.7H50c0.3,0,0.6-0.1,0.7-0.2
		s0.2-0.3,0.2-0.5s-0.1-0.4-0.2-0.6c-0.2-0.1-0.4-0.2-0.7-0.2h-1.9c-0.3,0-0.6,0.1-0.7,0.2s-0.2,0.3-0.2,0.6
		C47.2,56,47.2,56.7,47.2,56.7z"/>
	<path id="XMLID_5549_" class="st6" d="M57.1,54.6L57.1,54.6c0,0.3-0.3,0.6-0.6,0.6h-1.8c-0.3,0-0.6,0.2-0.6,0.6v3.6
		c0,0.3-0.3,0.6-0.6,0.6h-0.1c-0.3,0-0.6-0.3-0.6-0.6v-3.6c0-0.6,0.1-1,0.3-1.3c0.2-0.3,0.6-0.4,1.3-0.4h1.9
		C56.8,54.1,57.1,54.4,57.1,54.6z"/>
</g>
</svg>
