<?xml version="1.0" encoding="utf-8"?>
<!-- Generator: Adobe Illustrator 19.0.0, SVG Export Plug-In . SVG Version: 6.00 Build 0)  -->
<svg version="1.1" id="圖層_1" xmlns="http://www.w3.org/2000/svg" xmlns:xlink="http://www.w3.org/1999/xlink" x="0px" y="0px"
	 viewBox="0 0 460 200" style="enable-background:new 0 0 460 200;" xml:space="preserve">
<style type="text/css">
	.st0{fill:#FFFFFF;}
	.st1{fill:#BBBBBB;}
	.st2{fill:#1C7AB3;}
	.st3{fill:#AF3081;}
	.st4{fill:#0D3F69;}
	.st5{fill:#50A837;}
	.st6{fill:#E0B825;}
	.st7{fill:#E3871F;}
</style>
<g id="XMLID_114_">
	<g id="XMLID_203_">
		<path id="XMLID_219_" class="st0" d="M99.4,75L99.4,75c0,1.8-1.4,3.2-3.2,3.2H80.4c-1.7,0-2.9,0.4-3.7,1.2
			c-0.8,0.8-1.2,1.9-1.2,3.2c0,0.5,0.1,1.1,0.2,1.6c0.2,0.5,0.5,1,0.9,1.4c0.4,0.4,1,0.8,1.7,1S80,87,81.1,87h8.7
			c2.5,0,4.6,0.3,6.2,1c1.6,0.6,2.9,1.5,3.8,2.5c0.9,1,1.6,2.2,1.9,3.5s0.5,2.6,0.5,4c0,1.6-0.2,3-0.7,4.3c-0.4,1.3-1.1,2.5-2.1,3.4
			c-1,1-2.2,1.7-3.6,2.3c-1.5,0.5-3.3,0.8-5.4,0.8H73c-1.8,0-3.2-1.4-3.2-3.2l0,0c0-1.8,1.4-3.2,3.2-3.2h17.6c1.8,0,3-0.4,3.9-1.3
			c0.8-0.9,1.2-2,1.2-3.3c0-0.6-0.1-1.2-0.3-1.7c-0.2-0.6-0.5-1.1-0.9-1.5c-0.4-0.4-1-0.8-1.8-1c-0.7-0.3-1.7-0.4-2.8-0.4h-8.6
			c-2.5,0-4.5-0.3-6.1-0.9c-1.6-0.6-2.8-1.4-3.7-2.5c-0.9-1-1.5-2.2-1.9-3.5c-0.3-1.3-0.5-2.6-0.5-3.8c0-1.5,0.2-3,0.6-4.2
			c0.4-1.3,1.1-2.4,2-3.4c0.9-0.9,2.1-1.7,3.6-2.2s3.2-0.8,5.3-0.8h15.5C98,71.8,99.4,73.2,99.4,75z"/>
		<path id="XMLID_216_" class="st0" d="M124.3,79.8c3.8,0,6.9,1.2,9.2,3.6c2.3,2.4,3.4,6,3.4,10.9c0,4.9-1.1,8.5-3.4,10.9
			c-2.3,2.4-5.3,3.6-9.2,3.6h-6.1c-3.9,0-6.9-1.2-9.2-3.6c-2.2-2.4-3.4-6-3.4-10.9s1.1-8.5,3.4-10.9c2.2-2.4,5.3-3.6,9.2-3.6H124.3z
			 M118.7,85.4c-2.5,0-4.4,0.7-5.5,2.1c-1.2,1.4-1.7,3.7-1.7,6.8s0.6,5.4,1.7,6.8c1.2,1.4,3,2.1,5.5,2.1h5c2.5,0,4.4-0.7,5.5-2.1
			c1.2-1.4,1.7-3.6,1.7-6.8s-0.6-5.4-1.7-6.8c-1.2-1.4-3-2.1-5.5-2.1H118.7z"/>
		<path id="XMLID_214_" class="st0" d="M144.3,79.8c1.7,0,3.1,1.4,3.1,3.1v14.3c0,1.7,0.6,3.1,1.8,4.3c1.2,1.1,3,1.7,5.3,1.7h4.7
			c2.3,0,4.1-0.6,5.3-1.7c1.2-1.1,1.8-2.6,1.8-4.3V85.4c0-3.1,2.5-5.5,5.5-5.5h0.2v17.6c0,1.7-0.3,3.2-0.8,4.6
			c-0.5,1.4-1.3,2.6-2.4,3.6c-1.1,1-2.4,1.8-3.9,2.4c-1.6,0.6-3.4,0.8-5.5,0.8h-5.4c-2.1,0-3.9-0.3-5.5-0.8
			c-1.6-0.6-2.9-1.4-3.9-2.4s-1.9-2.2-2.4-3.6c-0.5-1.4-0.8-2.9-0.8-4.6V82.6C141.5,81.1,142.8,79.8,144.3,79.8L144.3,79.8z"/>
		<path id="XMLID_212_" class="st0" d="M194.1,79.8c4.9,0,8.6,1.1,11,3.3c2.4,2.2,3.6,5.3,3.6,9.4v13.2c0,1.7-1.4,3.1-3.1,3.1h0
			c-1.5,0-2.7-1.2-2.7-2.7V92.5c0-2.3-0.7-4.1-2.1-5.3c-1.4-1.2-3.6-1.8-6.7-1.8h-9.5c-0.5,0-0.7,0.3-0.7,0.8v17.3
			c0,2.9-2.3,5.2-5.2,5.2h-0.6V84.3c0-1.7,0.3-2.9,0.9-3.5c0.6-0.6,1.7-1,3.1-1H194.1z"/>
		<path id="XMLID_209_" class="st0" d="M241.7,67.3c1.6,0,2.9,1.3,2.9,2.9v26.2c0,4.2-0.9,7.3-2.7,9.4c-1.8,2-4.5,3-7.9,3h-8
			c-3.9,0-6.9-1.2-9.2-3.6c-2.2-2.4-3.4-6-3.4-10.9s1.1-8.5,3.4-10.9c2.2-2.4,5.3-3.6,9.2-3.6h9.8c1.6,0,2.9-1.3,2.9-2.9v-6.7
			C238.8,68.6,240.1,67.3,241.7,67.3L241.7,67.3z M232.3,103.1c2.3,0,4-0.5,5-1.6s1.5-2.9,1.5-5.4V85.4h-12.2
			c-2.5,0-4.4,0.7-5.5,2.1c-1.2,1.4-1.7,3.7-1.7,6.8s0.6,5.4,1.7,6.8c1.2,1.4,3,2.1,5.5,2.1H232.3z"/>
		<path id="XMLID_206_" class="st0" d="M269.7,79.8c3.4,0,5.9,0.8,7.5,2.3c1.5,1.6,2.3,3.7,2.3,6.6c0,2.7-0.8,4.7-2.2,6.2
			c-1.5,1.4-4,2.2-7.6,2.2h-13.8v2.1c0,1.2,0.3,2.1,1,2.9c0.7,0.8,1.8,1.1,3.4,1.1h17.7l0,0c0,3.1-2.5,5.7-5.7,5.7h-12.1
			c-1.8,0-3.4-0.2-4.6-0.7c-1.3-0.5-2.3-1.1-3.1-2c-0.8-0.9-1.4-1.9-1.8-3c-0.4-1.2-0.5-2.4-0.5-3.8v-9.9c0-1.4,0.2-2.6,0.5-3.8
			c0.4-1.2,1-2.2,1.8-3c0.8-0.9,1.9-1.5,3.1-2c1.3-0.5,2.8-0.7,4.6-0.7H269.7z M255.9,92.5h13.6c1.6,0,2.7-0.3,3.3-0.9s1-1.5,1-2.5
			c0-1.1-0.3-2-1-2.6c-0.7-0.7-1.7-1-3.1-1h-9.3c-1.6,0-2.8,0.4-3.4,1.2c-0.7,0.8-1,1.7-1,2.9V92.5z"/>
		<path id="XMLID_204_" class="st0" d="M304.2,82.6L304.2,82.6c0,1.5-1.3,2.8-2.8,2.8H293c-1.5,0-2.7,1.2-2.7,2.7V106
			c0,1.5-1.3,2.8-2.8,2.8h-0.2c-1.5,0-2.8-1.3-2.8-2.8V88.3c0-2.9,0.6-5.1,1.8-6.4c1.2-1.4,3.2-2,6.1-2h9.1
			C303,79.8,304.2,81.1,304.2,82.6z"/>
	</g>
	<g id="XMLID_145_">
		<path id="XMLID_201_" class="st1" d="M68.7,130c2.3-0.4,4-0.6,5.1-0.6c1.7,0,3,0.4,4,1.2s1.5,1.8,1.5,3s-0.5,2.3-1.6,3.4
			c-1.1,1.1-2.4,1.9-4,2.5c-0.2,0.1-0.3,0.2-0.3,0.2c0,0.1,0.8,0.8,2.5,2.1c1.6,1.3,3.1,2.3,4.5,3.2c0.4,0.2,0.6,0.6,0.6,0.9
			c0,0.3-0.1,0.5-0.4,0.8c-0.3,0.2-0.5,0.4-0.7,0.4c-0.5,0-1.2-0.4-2.2-1.2c-1-0.8-2.1-1.6-3.2-2.6c-2.4-2-3.7-3-4-3
			c-0.5,0-0.9-0.1-1.1-0.2c-0.2-0.1-0.3-0.4-0.3-0.7c0-0.3,0.1-0.6,0.4-0.8c0.3-0.2,0.6-0.3,1-0.3c0.1,0,0.3,0,0.6,0.1
			c0.3,0,0.5,0.1,0.7,0.1c0.6,0,1.7-0.5,3.3-1.4c1.5-0.9,2.3-2.1,2.3-3.3c0-0.7-0.3-1.3-1-1.7c-0.7-0.5-1.6-0.7-2.6-0.7
			c-0.8,0-1.6,0.1-2.4,0.2c-0.8,0.1-1.3,0.2-1.5,0.3c-0.2,0.1-0.4,0.3-0.5,0.6c-0.1,0.3-0.4,1.4-0.7,3.1c-0.3,1.8-0.6,3.4-0.7,5
			c-0.2,1.6-0.3,2.7-0.3,3.5c0,0.6,0,1.1,0.1,1.5c0.1,0.4,0.1,0.8,0.1,1c0,0.2-0.1,0.5-0.4,0.7c-0.3,0.3-0.5,0.4-0.8,0.4
			c-0.8,0-1.3-0.7-1.3-2c0-3.2,0.6-7.4,1.7-12.7c0.1-0.3,0.1-0.4,0.1-0.5c0,0,0-0.1-0.1-0.2c-0.3-0.5-0.5-0.8-0.5-1
			c0-0.3,0.1-0.6,0.4-0.8c0.3-0.2,0.6-0.3,0.8-0.3L68.7,130z"/>
		<path id="XMLID_198_" class="st1" d="M93,142.8c0,0.8-0.7,1.8-2.1,2.9c-1.4,1.1-2.9,1.7-4.4,1.7c-1.3,0-2.3-0.4-3-1.1
			c-0.7-0.8-1-1.8-1-3.2c0-2.3,0.8-4.4,2.3-6.5c1.5-2,3.2-3.1,5-3.1c0.6,0,1.1,0.2,1.5,0.6c0.4,0.4,0.6,0.9,0.6,1.4
			c0,1.2-0.6,2.4-1.8,3.5c-1.2,1.1-2.8,2.2-4.8,3.3c-0.4,0.2-0.6,0.5-0.6,0.8c0,0.7,0.2,1.2,0.6,1.6c0.4,0.4,0.9,0.6,1.7,0.6
			c1.7,0,3.4-0.9,5.2-2.8c0.3-0.3,0.5-0.4,0.6-0.4C92.9,142.2,93,142.4,93,142.8z M84.7,140.9c3.4-2,5-3.6,5-4.8
			c0-0.5-0.2-0.7-0.6-0.7c-0.7,0-1.6,0.5-2.5,1.6C85.8,138,85.1,139.4,84.7,140.9z"/>
		<path id="XMLID_195_" class="st1" d="M103.5,142.5c-1.1,1.5-2.2,2.6-3.3,3.4c-1.1,0.7-2.1,1.1-3,1.1c-0.6,0-1.1-0.3-1.6-0.8
			c-0.4-0.5-0.7-1.2-0.7-2c0-2.1,0.9-4.3,2.8-6.7c1.9-2.4,3.7-3.6,5.6-3.6c0.7,0,1.2,0.4,1.5,1.1c0.1,0.3,0.3,0.4,0.5,0.4
			c0.6,0,1,0.2,1,0.7c0,0.2,0,0.6-0.1,1c-0.4,2.3-0.6,4-0.6,5c0,1.9,0.4,3.1,1.1,3.5c0.3,0.2,0.5,0.4,0.5,0.7c0,0.2-0.2,0.5-0.5,0.7
			c-0.3,0.2-0.7,0.4-1,0.4c-0.6,0-1.1-0.4-1.5-1.3C103.7,145.2,103.5,144,103.5,142.5z M102.8,135.8c-1,0-2.3,1-3.7,2.9
			c-1.4,2-2.1,3.6-2.1,4.9c0,0.9,0.3,1.4,0.9,1.4c0.9,0,2.1-0.9,3.6-2.6c1.5-1.8,2.3-3.4,2.3-4.9
			C103.9,136.3,103.5,135.8,102.8,135.8z"/>
		<path id="XMLID_192_" class="st1" d="M118.3,141.9c-1.1,1.7-2.2,3-3.4,3.9c-1.2,0.9-2.3,1.4-3.3,1.4c-0.8,0-1.4-0.3-1.8-0.9
			c-0.4-0.6-0.7-1.4-0.7-2.4c0-2,0.8-4.1,2.4-6.2c1.6-2.1,3.4-3.2,5.3-3.2c0.8,0,1.6,0.4,2.3,1.1l1.7-7.8c0.1-0.5,0.3-0.9,0.7-1.1
			c0.3-0.2,0.6-0.3,0.8-0.3c0.6,0,0.8,0.5,0.8,1.5c0,0.2-0.2,0.8-0.5,2c-0.6,1.7-1.1,3.9-1.6,6.4c-0.5,2.5-0.8,4.6-0.8,6.1
			c0,1.6,0.3,2.4,1,2.4c0.4,0,0.9-0.1,1.4-0.4c0.2-0.1,0.4-0.2,0.6-0.2c0.3,0,0.4,0.2,0.4,0.5c0,0.4-0.4,0.9-1.1,1.4
			c-0.7,0.5-1.4,0.8-2.2,0.8c-1.3,0-2-1.3-2-3.8C118.3,142.7,118.3,142.3,118.3,141.9z M116.8,136.3c-1.3,0-2.6,0.9-3.8,2.6
			c-1.3,1.7-1.9,3.4-1.9,4.8c0,1,0.3,1.5,1,1.5c0.6,0,1.4-0.3,2.3-1c0.9-0.7,1.8-1.7,2.7-3.1c0.9-1.4,1.4-2.5,1.4-3.2
			c0-0.3-0.2-0.7-0.5-1.1C117.6,136.5,117.2,136.3,116.8,136.3z"/>
		<path id="XMLID_190_" class="st1" d="M134.7,142.6c-1.5,1.3-2.7,2.2-3.9,2.8c-1.1,0.6-2,0.9-2.5,0.9c-0.8,0-1.4-0.3-1.8-1
			c-0.4-0.7-0.6-1.4-0.6-2.3c0-1.2,0.2-2.7,0.7-4.5c0.5-1.8,0.9-2.9,1.1-3.2c0.2-0.3,0.6-0.5,1.2-0.5c0.2,0,0.4,0.1,0.5,0.4
			c0.1,0.3,0.2,0.6,0.2,0.9c0,0.2-0.1,0.5-0.3,0.8c-0.4,0.7-0.7,1.2-0.7,1.2c0,0.1-0.2,0.6-0.5,1.4c-0.3,0.9-0.4,1.7-0.4,2.5
			c0,0.3,0.1,0.7,0.2,1.3c0.1,0.6,0.4,0.9,0.8,0.9c0.4,0,1-0.1,1.6-0.4c0.6-0.3,1.4-0.7,2.2-1.3c0.8-0.6,1.3-1.1,1.6-1.5
			c0.3-0.4,0.5-0.8,0.6-1.3c0.1-0.5,0.2-1.5,0.2-3.1c0-1.6,0.4-2.4,1.2-2.4c0.4,0,0.7,0.1,0.8,0.3c0.1,0.2,0.2,0.7,0.2,1.3
			c0,0.5,0,1.2-0.1,2c-0.1,1-0.1,1.7-0.2,2.1c-0.1,2.2-0.4,4.4-0.9,6.6c-0.5,2.2-1.1,4-2,5.5c-0.9,1.5-2.1,2.2-3.6,2.2
			c-1.6,0-2.9-0.4-4.1-1.2c-1.2-0.8-1.8-1.5-1.8-2.1c0-0.3,0.1-0.5,0.2-0.8c0.1-0.3,0.3-0.4,0.5-0.4c0.1,0,0.2,0.1,0.3,0.2
			c1,1.6,2.7,2.4,4.9,2.4c1.1,0,2.1-1,2.9-3c0.8-2,1.2-3.9,1.3-5.7C134.6,143.3,134.7,142.9,134.7,142.6z"/>
		<path id="XMLID_188_" class="st1" d="M152.4,147.3c-0.1,0.2-0.2,0.4-0.4,0.5c-0.2,0.1-0.5,0.2-0.7,0.2c-0.8,0-1.2-0.6-1.2-1.8
			c0-0.6,0.2-2.2,0.6-4.8c0.2-1.6,0.3-2.8,0.3-3.7c0-0.1-0.2-0.3-0.5-0.6c-0.3-0.2-0.5-0.4-0.5-0.7c0-0.3,0.3-0.7,0.8-1.1
			c0.4-0.3,0.6-0.7,0.7-1c0.1-0.4,0.2-0.9,0.3-1.6c0.4-2.5,1-4.2,1.9-5.3c0.9-1.1,2-1.6,3.3-1.6c0.7,0,1.3,0.2,1.8,0.7
			c0.5,0.5,0.7,1.1,0.7,1.8c0,0.6-0.1,1.2-0.4,2c-0.3,0.7-0.6,1.1-0.9,1.1c-0.3,0-0.4-0.1-0.4-0.4l0.1-1.2c0-1.5-0.4-2.3-1.3-2.3
			c-0.9,0-1.7,0.9-2.3,2.7c-0.6,1.8-0.9,3.3-0.9,4.4c0,0.4,0.2,0.5,0.7,0.5c2.1,0,3.3,0,3.7,0c0.4,0,0.6,0.1,0.6,0.5
			c0,0.3-0.2,0.6-0.6,0.7c-0.4,0.2-1.3,0.3-2.6,0.5c-1.1,0.1-1.8,0.2-2,0.3c-0.5,3-0.8,5.6-0.8,7.9c0,0.7,0,1.2,0.1,1.5
			C152.4,147.1,152.4,147.3,152.4,147.3z"/>
		<path id="XMLID_185_" class="st1" d="M162.6,147.4c-1.1,0-2-0.4-2.7-1.2c-0.7-0.8-1.1-1.8-1.1-3.1c0-2,0.7-4.1,2.1-6.1
			c1.4-2,3-3,4.9-3c1.3,0,2.3,0.5,3.1,1.5c0.8,1,1.2,2.1,1.2,3.5c0,2.1-0.8,4-2.4,5.7C166.1,146.5,164.4,147.4,162.6,147.4z
			 M161,142.8c0,0.8,0.2,1.5,0.5,2c0.3,0.5,0.8,0.8,1.3,0.8c1.2,0,2.4-0.6,3.6-1.9c1.2-1.3,1.8-2.7,1.8-4.3c0-1-0.2-1.8-0.7-2.4
			c-0.5-0.6-1.1-0.9-1.8-0.9c-1.3,0-2.4,0.8-3.3,2.4C161.4,139.9,161,141.4,161,142.8z"/>
		<path id="XMLID_183_" class="st1" d="M175.3,142.1c0.1-0.1,0.2-0.3,0.3-0.6c0.5-1.2,1-2.2,1.5-2.9c0.5-0.7,1-1.4,1.5-2
			c0.5-0.6,1-1.1,1.5-1.5c0.4-0.3,0.9-0.6,1.2-0.7c0.4-0.1,0.7-0.2,1.1-0.2c0.7,0,1.3,0.2,1.7,0.6c0.4,0.4,0.7,0.9,0.7,1.5
			c0,0.2-0.1,0.5-0.2,0.7c-0.2,0.2-0.4,0.3-0.7,0.3c-0.3,0-0.6-0.1-0.9-0.4c-0.3-0.3-0.6-0.4-0.9-0.4c-0.8,0-2,1-3.4,3
			c-1.5,2-2.3,4.2-2.7,6.6c-0.1,0.6-0.2,1-0.5,1.2c-0.2,0.2-0.5,0.3-0.9,0.3c-0.4,0-0.7-0.3-0.8-0.9c-0.2-0.6-0.3-1.6-0.3-2.9
			c0-0.4,0-1.2,0.1-2.5c0-1.5,0.1-2.7,0.3-3.6c0-0.2,0.1-0.5,0.1-1.1c0.1-0.6,0.1-1,0.2-1.3c0.1-0.2,0.3-0.5,0.5-0.7
			c0.3-0.2,0.5-0.3,0.8-0.3c0.3,0,0.5,0.1,0.7,0.3s0.2,0.4,0.2,0.6c0,0.3-0.1,0.7-0.2,1.3c-0.2,0.6-0.3,1.1-0.3,1.3
			c0,0.3-0.1,0.6-0.1,0.8c-0.1,0.3-0.2,1.2-0.2,2.7l0,0.4V142.1z"/>
		<path id="XMLID_181_" class="st1" d="M203.9,142.6c-1.5,1.3-2.7,2.2-3.9,2.8c-1.1,0.6-2,0.9-2.5,0.9c-0.8,0-1.4-0.3-1.8-1
			c-0.4-0.7-0.6-1.4-0.6-2.3c0-1.2,0.2-2.7,0.7-4.5c0.5-1.8,0.9-2.9,1.1-3.2c0.2-0.3,0.6-0.5,1.2-0.5c0.2,0,0.4,0.1,0.5,0.4
			c0.1,0.3,0.2,0.6,0.2,0.9c0,0.2-0.1,0.5-0.3,0.8c-0.4,0.7-0.7,1.2-0.7,1.2c0,0.1-0.2,0.6-0.5,1.4c-0.3,0.9-0.4,1.7-0.4,2.5
			c0,0.3,0.1,0.7,0.2,1.3c0.1,0.6,0.4,0.9,0.8,0.9c0.4,0,1-0.1,1.6-0.4c0.6-0.3,1.4-0.7,2.2-1.3c0.8-0.6,1.3-1.1,1.6-1.5
			c0.3-0.4,0.5-0.8,0.6-1.3c0.1-0.5,0.2-1.5,0.2-3.1c0-1.6,0.4-2.4,1.2-2.4c0.4,0,0.7,0.1,0.8,0.3c0.1,0.2,0.2,0.7,0.2,1.3
			c0,0.5,0,1.2-0.1,2c-0.1,1-0.1,1.7-0.2,2.1c-0.1,2.2-0.4,4.4-0.9,6.6c-0.5,2.2-1.1,4-2,5.5c-0.9,1.5-2.1,2.2-3.6,2.2
			c-1.6,0-2.9-0.4-4.1-1.2c-1.2-0.8-1.8-1.5-1.8-2.1c0-0.3,0.1-0.5,0.2-0.8c0.1-0.3,0.3-0.4,0.5-0.4c0.1,0,0.2,0.1,0.3,0.2
			c1,1.6,2.7,2.4,4.9,2.4c1.1,0,2.1-1,2.9-3c0.8-2,1.2-3.9,1.3-5.7C203.8,143.3,203.8,142.9,203.9,142.6z"/>
		<path id="XMLID_178_" class="st1" d="M213,147.4c-1.1,0-2-0.4-2.7-1.2c-0.7-0.8-1.1-1.8-1.1-3.1c0-2,0.7-4.1,2.1-6.1
			c1.4-2,3-3,4.9-3c1.3,0,2.3,0.5,3.1,1.5c0.8,1,1.2,2.1,1.2,3.5c0,2.1-0.8,4-2.4,5.7C216.4,146.5,214.7,147.4,213,147.4z
			 M211.3,142.8c0,0.8,0.2,1.5,0.5,2c0.3,0.5,0.8,0.8,1.3,0.8c1.2,0,2.4-0.6,3.6-1.9c1.2-1.3,1.8-2.7,1.8-4.3c0-1-0.2-1.8-0.7-2.4
			c-0.5-0.6-1.1-0.9-1.8-0.9c-1.3,0-2.4,0.8-3.3,2.4C211.8,139.9,211.3,141.4,211.3,142.8z"/>
		<path id="XMLID_176_" class="st1" d="M231.7,141.6c-1,1.7-2.1,3-3.1,4c-1.1,0.9-2.1,1.4-3,1.4c-0.5,0-1.1-0.3-1.6-0.9
			c-0.5-0.6-0.8-1.6-0.8-2.8c0-1,0.2-2.6,0.7-4.6c0.4-1.7,0.6-2.9,0.6-3.6c0.2-0.5,0.6-0.7,1.1-0.7c0.3,0,0.6,0.1,0.8,0.4
			c0.2,0.2,0.3,0.5,0.3,0.7c0,0.6-0.2,1.3-0.6,2.4c-0.7,2-1.1,3.7-1.1,5.1c0,1.3,0.3,2,0.9,2c0.8,0,1.7-0.7,2.9-2
			c1.2-1.3,2.2-3.1,3.1-5.5c0.3-0.9,0.6-1.5,0.8-1.8c0.2-0.3,0.5-0.4,0.9-0.4c0.5,0,0.8,0.4,0.8,1.1c0,0.1-0.1,0.4-0.2,0.9
			c-0.5,1.7-0.7,3.4-0.7,4.9c0,1.9,0.3,3.1,0.9,3.6c0.3,0.3,0.5,0.5,0.5,0.7c0,0.2-0.2,0.4-0.5,0.6c-0.3,0.2-0.6,0.3-0.9,0.3
			c-0.6,0-1-0.4-1.3-1.2c-0.3-0.8-0.5-2-0.5-3.7V142C231.7,141.9,231.7,141.8,231.7,141.6z"/>
		<path id="XMLID_174_" class="st1" d="M240.5,142.1c0.1-0.1,0.2-0.3,0.3-0.6c0.5-1.2,1-2.2,1.5-2.9s0.9-1.4,1.5-2
			c0.5-0.6,1-1.1,1.5-1.5c0.4-0.3,0.9-0.6,1.2-0.7c0.4-0.1,0.7-0.2,1.1-0.2c0.7,0,1.3,0.2,1.7,0.6c0.4,0.4,0.7,0.9,0.7,1.5
			c0,0.2-0.1,0.5-0.2,0.7c-0.2,0.2-0.4,0.3-0.7,0.3c-0.3,0-0.6-0.1-0.9-0.4c-0.3-0.3-0.6-0.4-0.9-0.4c-0.8,0-2,1-3.4,3
			c-1.5,2-2.3,4.2-2.7,6.6c-0.1,0.6-0.2,1-0.5,1.2c-0.2,0.2-0.5,0.3-0.9,0.3c-0.4,0-0.7-0.3-0.8-0.9c-0.2-0.6-0.3-1.6-0.3-2.9
			c0-0.4,0-1.2,0.1-2.5c0-1.5,0.1-2.7,0.3-3.6c0-0.2,0.1-0.5,0.1-1.1c0.1-0.6,0.1-1,0.2-1.3c0.1-0.2,0.3-0.5,0.5-0.7
			s0.5-0.3,0.8-0.3c0.3,0,0.5,0.1,0.7,0.3c0.1,0.2,0.2,0.4,0.2,0.6c0,0.3-0.1,0.7-0.2,1.3c-0.2,0.6-0.3,1.1-0.3,1.3
			c0,0.3-0.1,0.6-0.1,0.8c-0.1,0.3-0.2,1.2-0.2,2.7l0,0.4V142.1z"/>
		<path id="XMLID_171_" class="st1" d="M262.6,144.2c0,0.6,0.1,1.3,0.2,2c0,0.1,0,0.3,0,0.4c0,0.1-0.1,0.3-0.4,0.6s-0.5,0.3-0.8,0.3
			c-0.8,0-1.2-0.7-1.2-2.1c0-1.5,0.3-3.8,0.9-6.9c0.2-1.1,0.3-1.8,0.3-2c0-0.5,0.1-0.9,0.3-1.3c0.2-0.4,0.4-0.5,0.8-0.5
			c0.4,0,0.7,0.1,1,0.3c0.2,0.2,0.3,0.4,0.3,0.6s-0.1,0.6-0.2,0.9c-0.6,2.1-1,3.6-1.1,4.5C262.6,141.8,262.6,142.9,262.6,144.2z
			 M264.1,130.9c-0.2,0-0.3-0.2-0.4-0.5c0-0.1-0.1-0.2-0.1-0.4c-0.2-0.5-0.3-1-0.3-1.3c0-0.3,0.2-0.6,0.6-1c0.4-0.3,0.8-0.5,1.3-0.5
			c0.2,0,0.5,0.1,0.8,0.3c0.3,0.2,0.4,0.4,0.4,0.5c0,0.3-0.1,0.7-0.3,1.3c-0.2,0.6-0.5,1-0.9,1.3S264.3,130.9,264.1,130.9z"/>
		<path id="XMLID_169_" class="st1" d="M275.4,137.6c-0.4,0-0.9,0.3-1.4,0.8c-0.5,0.5-1.2,1.7-2.2,3.6c-1.3,2.5-2.2,4-2.6,4.3
			c-0.4,0.3-0.7,0.5-1,0.5c-0.9,0-1.4-0.5-1.4-1.4c0-0.4,0.1-0.9,0.2-1.6c0.4-2.4,0.7-4.9,0.7-7.6c0-0.3,0.1-0.6,0.4-1
			c0.3-0.4,0.5-0.6,0.7-0.6c0.4,0,0.7,0.1,0.9,0.4c0.2,0.3,0.3,0.8,0.3,1.5c0,0.8-0.2,2.5-0.7,5c-0.2,0.8-0.2,1.3-0.2,1.6
			c0,0.1,0,0.2,0.1,0.2c0.1,0,0.7-0.9,1.7-2.8c1-1.9,1.9-3.3,2.6-4.1c0.7-0.8,1.6-1.2,2.5-1.2c0.7,0,1.3,0.3,1.7,1s0.8,1.8,1,3.6
			c0.2,2,0.4,3.2,0.6,3.7c0.2,0.5,0.5,0.7,0.9,0.7c0.2,0,0.6-0.1,0.9-0.3c0.1,0,0.1,0,0.1,0c0.3,0,0.5,0.2,0.5,0.6
			c0,0.3-0.2,0.7-0.7,1.1c-0.5,0.4-1,0.6-1.7,0.6c-0.7,0-1.2-0.3-1.6-0.8c-0.4-0.5-0.7-2-0.9-4.3
			C276.6,138.8,276.2,137.6,275.4,137.6z"/>
		<path id="XMLID_167_" class="st1" d="M291.6,137.6c-0.4,0-0.9,0.3-1.4,0.8c-0.5,0.5-1.2,1.7-2.2,3.6c-1.3,2.5-2.2,4-2.6,4.3
			c-0.4,0.3-0.7,0.5-1,0.5c-0.9,0-1.4-0.5-1.4-1.4c0-0.4,0.1-0.9,0.2-1.6c0.4-2.4,0.7-4.9,0.7-7.6c0-0.3,0.1-0.6,0.4-1
			c0.3-0.4,0.5-0.6,0.7-0.6c0.4,0,0.7,0.1,0.9,0.4c0.2,0.3,0.3,0.8,0.3,1.5c0,0.8-0.2,2.5-0.7,5c-0.2,0.8-0.2,1.3-0.2,1.6
			c0,0.1,0,0.2,0.1,0.2c0.1,0,0.7-0.9,1.7-2.8c1-1.9,1.9-3.3,2.6-4.1c0.7-0.8,1.6-1.2,2.5-1.2c0.7,0,1.3,0.3,1.7,1
			c0.4,0.7,0.8,1.8,1,3.6c0.2,2,0.4,3.2,0.6,3.7c0.2,0.5,0.5,0.7,0.8,0.7c0.2,0,0.6-0.1,0.9-0.3c0.1,0,0.1,0,0.1,0
			c0.3,0,0.5,0.2,0.5,0.6c0,0.3-0.2,0.7-0.7,1.1c-0.5,0.4-1,0.6-1.7,0.6c-0.7,0-1.2-0.3-1.6-0.8c-0.4-0.5-0.7-2-0.9-4.3
			C292.8,138.8,292.3,137.6,291.6,137.6z"/>
		<path id="XMLID_164_" class="st1" d="M303.1,147.4c-1.1,0-2-0.4-2.7-1.2c-0.7-0.8-1.1-1.8-1.1-3.1c0-2,0.7-4.1,2.1-6.1
			c1.4-2,3-3,4.9-3c1.3,0,2.3,0.5,3.1,1.5c0.8,1,1.2,2.1,1.2,3.5c0,2.1-0.8,4-2.4,5.7C306.6,146.5,304.9,147.4,303.1,147.4z
			 M301.5,142.8c0,0.8,0.2,1.5,0.5,2c0.3,0.5,0.8,0.8,1.3,0.8c1.2,0,2.4-0.6,3.6-1.9c1.2-1.3,1.8-2.7,1.8-4.3c0-1-0.2-1.8-0.7-2.4
			c-0.5-0.6-1.1-0.9-1.8-0.9c-1.3,0-2.4,0.8-3.3,2.4C301.9,139.9,301.5,141.4,301.5,142.8z"/>
		<path id="XMLID_162_" class="st1" d="M315.7,146.9c0-0.5-0.3-1.6-1-3.6c-1.3-3.6-2-6.1-2-7.5c0-1.1,0.4-1.7,1.1-1.7
			c0.7,0,1.1,0.5,1.1,1.5c0,0.8,0,1.4,0.1,1.9c0.1,0.4,0.2,1.2,0.6,2.4c0.3,1.2,0.7,2.3,1.1,3.3c0.2,0.5,0.3,0.9,0.4,1.2
			c0.2-0.3,0.4-0.6,0.6-1c1.4-2.3,2.5-4.2,3.3-5.4c0.8-1.3,1.5-2.2,2-2.8c0.5-0.6,0.9-0.9,1.2-1c0.2-0.1,0.5-0.2,0.8-0.2
			c0.3,0,0.6,0.1,0.7,0.3c0.2,0.2,0.3,0.5,0.3,0.8c0,0.4-0.3,0.8-1,1.2c-0.6,0.4-1.5,1.4-2.7,3.1c-1.2,1.7-2.5,3.8-3.9,6.3
			c-0.7,1.3-1.3,2-1.6,2C316.5,147.7,316.1,147.5,315.7,146.9z"/>
		<path id="XMLID_159_" class="st1" d="M334.8,142.5c-1.1,1.5-2.2,2.6-3.3,3.4s-2.1,1.1-3,1.1c-0.6,0-1.1-0.3-1.6-0.8
			c-0.4-0.5-0.7-1.2-0.7-2c0-2.1,0.9-4.3,2.8-6.7c1.9-2.4,3.7-3.6,5.6-3.6c0.7,0,1.2,0.4,1.5,1.1c0.1,0.3,0.3,0.4,0.5,0.4
			c0.6,0,1,0.2,1,0.7c0,0.2,0,0.6-0.1,1c-0.4,2.3-0.6,4-0.6,5c0,1.9,0.4,3.1,1.1,3.5c0.3,0.2,0.5,0.4,0.5,0.7c0,0.2-0.2,0.5-0.5,0.7
			c-0.3,0.2-0.7,0.4-1,0.4c-0.6,0-1.1-0.4-1.5-1.3C335,145.2,334.8,144,334.8,142.5z M334,135.8c-1,0-2.3,1-3.7,2.9
			c-1.4,2-2.1,3.6-2.1,4.9c0,0.9,0.3,1.4,0.9,1.4c0.9,0,2.1-0.9,3.6-2.6c1.5-1.8,2.3-3.4,2.3-4.9C335.2,136.3,334.8,135.8,334,135.8
			z"/>
		<path id="XMLID_157_" class="st1" d="M345.9,134.8c0.8-0.1,1.6-0.1,2.3-0.2c0.7-0.1,1.3-0.1,1.8-0.1c0.6,0,1,0.1,1.1,0.2
			c0.2,0.1,0.2,0.3,0.2,0.6c0,0.6-0.4,1-1.3,1c-1.1,0.1-2.2,0.2-3.2,0.3c-1,0.1-1.5,0.2-1.6,0.3c-0.1,0.1-0.3,1-0.7,2.8
			c-0.4,1.8-0.6,3-0.6,3.5c0,0.9,0.1,1.5,0.3,1.7c0.2,0.3,0.6,0.4,1,0.4c0.7,0,1.6-0.5,2.8-1.5c0.5-0.4,0.8-0.6,1.1-0.6
			c0.3,0,0.5,0.2,0.5,0.5c0,0.6-0.5,1.3-1.6,2.2c-1.1,0.9-2.2,1.4-3.4,1.4c-1.9,0-2.9-1.1-2.9-3.4c0-0.8,0.2-2.1,0.6-3.8
			c0.4-1.7,0.6-2.7,0.6-3.1c0-0.1-0.1-0.2-0.3-0.2l-1.2,0.1c-1,0-1.5-0.4-1.5-1.2c0-0.5,0.2-0.7,0.7-0.7h2.5c0.2,0,0.3-0.1,0.4-0.2
			s0.3-0.7,0.6-1.5c0.2-0.9,0.5-1.7,0.7-2.6c0.2-0.8,0.6-1.3,1.1-1.3c0.3,0,0.6,0.1,0.8,0.4c0.2,0.2,0.3,0.5,0.3,0.7
			c0,0.1-0.1,0.7-0.4,1.7L345.9,134.8z"/>
		<path id="XMLID_154_" class="st1" d="M354.7,144.2c0,0.6,0.1,1.3,0.2,2c0,0.1,0,0.3,0,0.4c0,0.1-0.1,0.3-0.4,0.6s-0.5,0.3-0.8,0.3
			c-0.8,0-1.2-0.7-1.2-2.1c0-1.5,0.3-3.8,0.9-6.9c0.2-1.1,0.3-1.8,0.3-2c0-0.5,0.1-0.9,0.3-1.3c0.2-0.4,0.4-0.5,0.8-0.5
			c0.4,0,0.7,0.1,1,0.3c0.2,0.2,0.3,0.4,0.3,0.6s-0.1,0.6-0.2,0.9c-0.6,2.1-1,3.6-1.1,4.5C354.8,141.8,354.7,142.9,354.7,144.2z
			 M356.3,130.9c-0.2,0-0.3-0.2-0.4-0.5c0-0.1-0.1-0.2-0.1-0.4c-0.2-0.5-0.3-1-0.3-1.3c0-0.3,0.2-0.6,0.6-1c0.4-0.3,0.8-0.5,1.3-0.5
			c0.2,0,0.5,0.1,0.8,0.3c0.3,0.2,0.4,0.4,0.4,0.5c0,0.3-0.1,0.7-0.3,1.3c-0.2,0.6-0.5,1-0.9,1.3S356.5,130.9,356.3,130.9z"/>
		<path id="XMLID_151_" class="st1" d="M363,147.4c-1.1,0-2-0.4-2.7-1.2c-0.7-0.8-1.1-1.8-1.1-3.1c0-2,0.7-4.1,2.1-6.1
			c1.4-2,3-3,4.9-3c1.3,0,2.3,0.5,3.1,1.5c0.8,1,1.2,2.1,1.2,3.5c0,2.1-0.8,4-2.4,5.7C366.4,146.5,364.8,147.4,363,147.4z
			 M361.3,142.8c0,0.8,0.2,1.5,0.5,2c0.3,0.5,0.8,0.8,1.3,0.8c1.2,0,2.4-0.6,3.6-1.9c1.2-1.3,1.8-2.7,1.8-4.3c0-1-0.2-1.8-0.7-2.4
			c-0.5-0.6-1.1-0.9-1.8-0.9c-1.3,0-2.4,0.8-3.3,2.4C361.8,139.9,361.3,141.4,361.3,142.8z"/>
		<path id="XMLID_149_" class="st1" d="M381.4,137.6c-0.4,0-0.9,0.3-1.4,0.8c-0.5,0.5-1.2,1.7-2.2,3.6c-1.3,2.5-2.2,4-2.6,4.3
			c-0.4,0.3-0.7,0.5-1,0.5c-0.9,0-1.4-0.5-1.4-1.4c0-0.4,0.1-0.9,0.2-1.6c0.4-2.4,0.7-4.9,0.7-7.6c0-0.3,0.1-0.6,0.4-1
			s0.5-0.6,0.7-0.6c0.4,0,0.7,0.1,0.9,0.4c0.2,0.3,0.3,0.8,0.3,1.5c0,0.8-0.2,2.5-0.7,5c-0.2,0.8-0.2,1.3-0.2,1.6
			c0,0.1,0,0.2,0.1,0.2c0.1,0,0.7-0.9,1.7-2.8c1-1.9,1.9-3.3,2.6-4.1c0.7-0.8,1.6-1.2,2.5-1.2c0.7,0,1.3,0.3,1.7,1
			c0.4,0.7,0.8,1.8,1,3.6c0.2,2,0.4,3.2,0.6,3.7c0.2,0.5,0.5,0.7,0.8,0.7c0.2,0,0.6-0.1,0.9-0.3c0.1,0,0.1,0,0.1,0
			c0.3,0,0.5,0.2,0.5,0.6c0,0.3-0.2,0.7-0.7,1.1c-0.5,0.4-1,0.6-1.7,0.6c-0.7,0-1.2-0.3-1.6-0.8c-0.4-0.5-0.7-2-0.9-4.3
			C382.6,138.8,382.1,137.6,381.4,137.6z"/>
		<path id="XMLID_146_" class="st1" d="M392.1,144.4c0,0.8-0.2,1.3-0.6,1.7c-0.4,0.3-0.7,0.5-1,0.5c-0.6,0-0.9-0.4-0.9-1.2
			c0-0.3,0.1-0.7,0.4-1.1c0.3-0.4,0.6-0.6,0.9-0.6c0.2,0,0.4,0.1,0.7,0.3C391.9,144.1,392.1,144.3,392.1,144.4z M392.1,140.9
			c-0.2,0-0.5,0-0.8-0.1c-0.4-0.1-0.6-0.1-0.7-0.2c-0.1-0.8,0.1-2.4,0.6-4.8c0.4-1.9,0.6-3.2,0.6-4c0-1.1,0.2-1.8,0.6-2.2
			c0.4-0.4,0.7-0.6,1-0.6c0.2,0,0.4,0.1,0.6,0.2c0.2,0.2,0.3,0.4,0.3,0.6c0,0.2-0.4,2.2-1.3,6c-0.4,1.6-0.6,2.8-0.6,3.7
			C392.3,140.2,392.2,140.6,392.1,140.9z"/>
	</g>
	<g id="XMLID_115_">
		<g id="XMLID_140_">
			<g id="XMLID_143_">
				<path id="XMLID_144_" class="st2" d="M329.6,92.2c0-2.5,2-4.5,4.5-4.5h0.1c2.5,0,4.5,2,4.5,4.5V104c0,2.5-2,4.5-4.5,4.5h-0.1
					c-2.5,0-4.5-2-4.5-4.5V92.2z"/>
			</g>
			<g id="XMLID_141_">
				<path id="XMLID_142_" class="st2" d="M329.6,79.8c0-2.4,2-4.3,4.5-4.3h0.1c2.5,0,4.5,1.9,4.5,4.3s-2,4.3-4.5,4.3h-0.1
					C331.6,84.1,329.6,82.1,329.6,79.8z"/>
			</g>
		</g>
		<g id="XMLID_135_">
			<g id="XMLID_138_">
				<path id="XMLID_139_" class="st3" d="M353.1,91.7c0,2.5-2,4.5-4.5,4.5h-0.1c-2.5,0-4.5-2-4.5-4.5V75.3c0-2.5,2-4.5,4.5-4.5h0.1
					c2.5,0,4.5,2,4.5,4.5V91.7z"/>
			</g>
			<g id="XMLID_136_">
				<path id="XMLID_137_" class="st3" d="M353.1,104.2c0,2.4-2,4.3-4.5,4.3h-0.1c-2.5,0-4.5-1.9-4.5-4.3s2-4.3,4.5-4.3h0.1
					C351,99.9,353.1,101.8,353.1,104.2z"/>
			</g>
		</g>
		<g id="XMLID_131_">
			<g id="XMLID_133_">
				<path id="XMLID_134_" class="st4" d="M324.4,104.2c0,2.4-2,4.3-4.5,4.3h-0.1c-2.5,0-4.5-1.9-4.5-4.3s2-4.3,4.5-4.3h0.1
					C322.4,99.9,324.4,101.8,324.4,104.2z"/>
			</g>
			<path id="XMLID_132_" class="st4" d="M319.8,96.3L319.8,96.3c-2.5,0-4.6-2.1-4.6-4.6v-5.9c0-2.5,2.1-4.6,4.6-4.6l0,0
				c2.5,0,4.6,2.1,4.6,4.6v5.9C324.4,94.3,322.4,96.3,319.8,96.3z"/>
		</g>
		<g id="XMLID_126_">
			<g id="XMLID_129_">
				<path id="XMLID_130_" class="st5" d="M358.2,79.6c0-2.5,2-4.5,4.5-4.5h0.1c2.5,0,4.5,2,4.5,4.5V104c0,2.5-2,4.5-4.5,4.5h-0.1
					c-2.5,0-4.5-2-4.5-4.5V79.6z"/>
			</g>
			<g id="XMLID_127_">
				<path id="XMLID_128_" class="st5" d="M358.2,67.1c0-2.4,2-4.3,4.5-4.3h0.1c2.5,0,4.5,1.9,4.5,4.3s-2,4.3-4.5,4.3h-0.1
					C360.2,71.5,358.2,69.5,358.2,67.1z"/>
			</g>
		</g>
		<g id="XMLID_121_">
			<g id="XMLID_124_">
				<path id="XMLID_125_" class="st6" d="M381.7,91.7c0,2.5-2,4.5-4.5,4.5h-0.1c-2.5,0-4.5-2-4.5-4.5V58.9c0-2.5,2-4.5,4.5-4.5h0.1
					c2.5,0,4.5,2,4.5,4.5V91.7z"/>
			</g>
			<g id="XMLID_122_">
				<path id="XMLID_123_" class="st6" d="M381.7,104.2c0,2.4-2,4.3-4.5,4.3h-0.1c-2.5,0-4.5-1.9-4.5-4.3s2-4.3,4.5-4.3h0.1
					C379.7,99.9,381.7,101.8,381.7,104.2z"/>
			</g>
		</g>
		<g id="XMLID_116_">
			<g id="XMLID_119_">
				<path id="XMLID_120_" class="st7" d="M386.9,62.5c0-2.5,2-4.5,4.5-4.5h0.1c2.5,0,4.5,2,4.5,4.5V104c0,2.5-2,4.5-4.5,4.5h-0.1
					c-2.5,0-4.5-2-4.5-4.5V62.5z"/>
			</g>
			<g id="XMLID_117_">
				<path id="XMLID_118_" class="st7" d="M386.9,50.1c0-2.4,2-4.3,4.5-4.3h0.1c2.5,0,4.5,1.9,4.5,4.3s-2,4.3-4.5,4.3h-0.1
					C388.9,54.4,386.9,52.4,386.9,50.1z"/>
			</g>
		</g>
	</g>
</g>
</svg>
