<?xml version="1.0" encoding="utf-8"?>
<!-- Generator: Adobe Illustrator 19.0.0, SVG Export Plug-In . SVG Version: 6.00 Build 0)  -->
<svg version="1.1" id="圖層_1" xmlns="http://www.w3.org/2000/svg" xmlns:xlink="http://www.w3.org/1999/xlink" x="0px" y="0px"
	 viewBox="0 -5 310 74" style="enable-background:new 0 -5 310 74;" xml:space="preserve">
<style type="text/css">
	.st0{fill:#FFFDFF;}
</style>
<g id="XMLID_131_">
	<polygon id="XMLID_134_" class="st0" points="96.2,17.7 96.2,23.3 106.6,27.4 106.6,27.4 96.2,31.6 96.2,37.3 120.6,27.4 
		120.6,27.4 	"/>
	<path id="XMLID_133_" class="st0" d="M71.7,27.4l-6.5,20.7H54l6.6-20.7l6.5-20.2H51.7l-6.2,20.2l-4.2,13.5c0,0-0.3,1.4-0.1,3.4
		c2,10.8,9.9,16.2,23.7,16.2c4,0,7.6-0.4,10.6-1.4l0,0c0.1,0,0.1,0,0.3-0.1l0,0l0,0c2.2-0.6,5.2-1.9,7.6-3.4L78,52l7.5-24.5l7-22
		H78.6L71.7,27.4z"/>
	<polygon id="XMLID_132_" class="st0" points="9.1,27.4 33.4,37.3 33.4,31.6 23.2,27.4 23.2,27.4 33.4,23.3 33.4,17.7 	"/>
</g>
<g id="XMLID_45_">
	<path id="XMLID_129_" class="st0" d="M144,34.8c0,2.6-0.8,4.7-2.4,6.4c-1.7,1.7-3.7,2.5-6.4,2.5c-2.5,0-4.6-0.8-6.3-2.5
		c-1.7-1.7-2.5-3.7-2.5-6.3V20.7h4v13.7c0,1.7,0.4,3,1.1,4c0.8,1.1,2.1,1.7,3.6,1.7c3.2,0,4.9-2,4.9-5.9V20.7h4L144,34.8L144,34.8z"
		/>
	<path id="XMLID_125_" class="st0" d="M157.3,27.6c-0.7-2.2-2.5-3.1-5.5-3.1v9.6v9.1h-4V20.7h4.6c2.8,0,5,0.6,6.5,1.8
		c1.8,1.6,2.7,3.7,2.8,6.5c-0.1,2.2-0.7,3.8-2.1,5.1l-1.5,1.5l5.3,7.6h-4.9l-6.3-9.1c2.4-0.3,4-1.4,4.8-3.3
		C157.6,29.7,157.6,28.6,157.3,27.6z"/>
	<path id="XMLID_116_" class="st0" d="M189.1,43.2h-4.3l-1.5-2.9h-11.7l-1.3,2.9h-4.4l11.6-23.6L189.1,43.2z M181.6,36.7l-4.1-8.6
		l-4.4,8.6H181.6z"/>
	<polygon id="XMLID_115_" class="st0" points="208.5,20.7 208.5,42.6 195.4,29.6 195.4,43.2 192,43.2 192,20.9 204.9,33.9 
		204.9,20.7 	"/>
	<path id="XMLID_112_" class="st0" d="M230.3,34.8c0,2.6-0.8,4.7-2.4,6.4c-1.7,1.7-3.7,2.5-6.4,2.5c-2.5,0-4.6-0.8-6.3-2.5
		s-2.5-3.7-2.5-6.3V20.7h4v13.7c0,1.7,0.4,3,1.1,4c0.8,1.1,2.1,1.7,3.6,1.7c3.2,0,4.9-2,4.9-5.9V20.7h4L230.3,34.8L230.3,34.8z"/>
	<path id="XMLID_46_" class="st0" d="M249.3,36.5c0,2-0.7,3.6-2.3,5.1c-1.6,1.4-3.4,2.2-5.3,2.2c-2.2,0-3.9-0.7-5.3-1.9
		c-0.9-0.9-1.9-1.8-2.7-2.5l2.5-2.5c1.6,1.9,3.5,3,5.6,3.3c1,0,1.9-0.4,2.5-1c0.7-0.7,0.9-1.6,0.9-2.6c0-1.2-0.8-2.2-2.6-3.1
		c-1.7-0.7-3.3-1.5-5-2.2c-1.8-1.1-2.6-2.8-2.6-4.9c0-1.8,0.7-3.3,2.3-4.4c1.4-1,3-1.5,4.9-1.5c2.8,0,4.9,0.8,6.3,2.4l-2.3,2.7
		c-1.3-0.9-2.6-1.5-4-1.5c-0.7,0-1.4,0.2-2.1,0.7c-0.7,0.5-1,1-1,1.8c0,0.9,0.6,1.6,1.6,2.2c0.1,0.1,1,0.4,2.7,1
		c1.1,0.4,2.1,0.9,3,1.6c1.1,0.8,1.9,1.7,2.2,2.5c0.2,0.3,0.3,0.8,0.5,1.5C249.3,35.5,249.3,36,249.3,36.5z"/>
</g>
<g id="XMLID_139_">
	<path id="XMLID_140_" class="st0" d="M268.7,43.5h-4V20.7h4V43.5z"/>
	<path id="XMLID_146_" class="st0" d="M289.9,31.8c0,3.7-1.2,6.6-3.7,8.8c-2.3,2-5.4,2.9-9.3,2.9h-5.6V20.7h5.3
		c3.7,0,6.7,0.9,9.3,2.7C288.6,25.3,289.9,28.1,289.9,31.8z M285.8,32c0-5.1-3.5-7.7-10.5-7.7v15.5h1.1c2.7,0,4.9-0.6,6.5-1.8
		C284.9,36.7,285.8,34.6,285.8,32z"/>
	<path id="XMLID_185_" class="st0" d="M303.1,43.5h-10.8V20.7h10.8l0.1,4.1h-6.9v4.7h6.5v3.9h-6.5v5.9h6.9L303.1,43.5z"/>
</g>
</svg>
